<?xml version="1.0" encoding="UTF-8" standalone="no"?>
<svg
   width="15"
   height="20"
   viewBox="0 0 15 20"
   fill="none"
   version="1.1"
   id="svg11"
   sodipodi:docname="angellist.svg"
   xmlns:inkscape="http://www.inkscape.org/namespaces/inkscape"
   xmlns:sodipodi="http://sodipodi.sourceforge.net/DTD/sodipodi-0.dtd"
   xmlns="http://www.w3.org/2000/svg"
   xmlns:svg="http://www.w3.org/2000/svg">
  <defs
     id="defs15" />
  <sodipodi:namedview
     id="namedview13"
     pagecolor="#ffffff"
     bordercolor="#000000"
     borderopacity="0.25"
     inkscape:showpageshadow="2"
     inkscape:pageopacity="0.0"
     inkscape:pagecheckerboard="0"
     inkscape:deskcolor="#d1d1d1"
     showgrid="false" />
  <path
     d="m 6.96416,20 c 4.69664,0 7.61914,-3.4608 7.61914,-7.9258 0,-1.6834 -0.2741,-3.20337 -2.185,-3.66003 0.465,-1.27334 1.8067,-4.95667 1.8067,-6.13667 0,-1.03917 -0.625,-1.91 -1.7392,-1.91 -1.7758,0 -3.36747,5.14417 -3.86581,6.37083 C 8.21416,5.625 6.4075,0 4.81499,0 3.57749,0 2.99666,0.894167 2.99666,2.01917 c 0,1.37916 1.36083,4.95333 1.85417,6.32833 -0.25,-0.09 -0.52084,-0.16833 -0.79667,-0.16833 -0.93167,0 -1.9225,1.13666 -1.9225,2.05503 0,0.3475 0.195,0.8358 0.31833,1.16 C 0.981661,11.785 0.416661,12.7458 0.416661,14.195 0.412495,17.015 3.13583,20 6.96416,20 Z M 10.9892,4.21917 c 0.16,-0.48084 0.84,-2.51167 1.4766,-2.51167 0.3425,0 0.4342,0.3475 0.4342,0.625 0,0.74583 -1.5358,4.8675 -1.875,5.78083 L 9.67166,7.87917 Z M 4.24666,1.8875 v -8.3e-4 c 0,-0.465 0.5775,-1.785003 1.8425,1.84 L 7.46666,7.645 C 6.84583,7.59417 6.36416,7.5275 6.05833,7.7 5.62416,6.575 4.24666,3.02417 4.24666,1.8875 Z m -0.09167,7.64333 8.4e-4,8.4e-4 c 1.16583,0 2.67083,3.69503 2.67083,4.19503 0,0.1991 -0.195,0.445 -0.42167,0.445 -0.8325,0 -3.06166,-3.0042 -3.06166,-3.8167 0.00333,-0.3008 0.505,-0.82417 0.81166,-0.82417 z m -1.34,3.05837 c 0.45334,0 2.16084,2.3558 2.16084,2.8558 0,0.1917 -0.30667,0.3242 -0.465,0.3242 -0.64084,0 -0.89167,-0.6059 -2.03334,-2.0075 -1.1825,1.16 0.81584,3.3941 2.32084,3.3941 1.03833,0 1.715,-0.945 1.5125,-1.6408 0.1475,0 0.33,0.0117 0.46583,-0.0233 0.04417,1.0583 0.3625,2.32 1.66,2.41 0,-0.035 0.08,-0.2775 0.08,-0.2892 0,-0.68 -0.42167,-1.2733 -0.42167,-1.965 0,-1.1058 0.86334,-2.1758 1.73917,-2.8008 0.31834,-0.2342 0.70504,-0.3792 1.07834,-0.5117 0.3867,-0.1442 0.7967,-0.3125 1.09,-0.6017 -0.0442,-0.4375 -0.2267,-0.8241 -0.6725,-0.8241 -1.1025,0 -4.8,0.1566 -4.8,-1.55087 0,-0.26166 0.00416,-0.51166 0.69333,-0.51166 1.28583,0 4.54997,0.3125 5.50497,1.13666 0.72,0.62917 0.9675,4.42167 -1.2341,6.82417 l -0.0025,8e-4 c -1.1584,1.25 -2.6392,1.8984 -4.3667,1.8984 -2.36417,0 -4.23167,-1.2734 -5.13084,-3.4492 -0.68083,-1.695 0.15167,-2.6683 0.82083,-2.6683 z m 4.75084,-0.7034 c 0.3875,0.1217 0.785,0.1575 1.18333,0.235 -0.295,0.2109 -0.55666,0.4692 -0.80833,0.7459 -0.11167,-0.3317 -0.2475,-0.6559 -0.375,-0.9809 z"
     fill="#505F79"
     id="path9"
     style="fill:#ffffff" />
</svg>
