<?xml version="1.0" encoding="utf-8"?>
<!-- Generator: Adobe Illustrator 24.0.0, SVG Export Plug-In . SVG Version: 6.00 Build 0)  -->
<svg version="1.2" baseProfile="tiny" id="Layer_1" xmlns="http://www.w3.org/2000/svg" xmlns:xlink="http://www.w3.org/1999/xlink"
	 x="0px" y="0px" width="800px" height="800px" viewBox="0 0 800 800" xml:space="preserve">
<g>
	<path d="M146.64,214.49c0-2.81,0.13-5.63-0.03-8.43c-0.2-3.36,1.35-4.67,4.56-5.22c6.04-1.04,11.81-0.39,17.38,2.02
		c5.52,2.38,8.32,6.68,8.07,12.08c-0.35,7.41-3.13,11.38-9.34,13.47c-2.8,0.94-5.49,2.28-8.35,2.99
		c-7.61,1.92-12.11-1.63-12.18-9.36c-0.02-2.51,0-5.03,0-7.54C146.71,214.49,146.67,214.49,146.64,214.49z M156.39,223.87
		c-0.22-1.23,0.07-3.22-1.69-2.99c-2.18,0.29-1.9,2.63-2.12,4.28c-0.16,1.21,0.17,2.67,1.69,2.49
		C156.38,227.41,156.19,225.44,156.39,223.87z"/>
	<path d="M499.48,559.8c0.61,6.95-0.87,13.77-4.02,20.35c-2.51,5.27-6.57,8.04-12.23,8.02c-5.94-0.01-11.73-1.84-14.01-7.66
		c-6.35-16.21-8.55-32.69,0.27-48.89c3.39-6.22,11.91-9.63,18.28-7.81c5.38,1.53,8.58,4.59,9.15,10.53
		C497.7,542.72,500,550.95,499.48,559.8z M476.78,541.8c-0.08,3.72,1.52,6.99,2.49,10.4c0.2,0.7,0.81,1.38,1.66,1.16
		c1.11-0.29,1.26-1.36,0.93-2.16C480.48,547.93,479.53,544.4,476.78,541.8z M483.97,562.2c-0.88,0.3-0.97,1.01-0.84,1.74
		c0.15,0.87,0.46,1.86,1.49,1.83c0.97-0.03,0.88-0.98,0.76-1.68C485.24,563.25,485.1,562.33,483.97,562.2z"/>
	<path d="M179.55,554.86c0.16,4.13-0.35,9.27-1.79,14.29c-2.71,9.48-8.61,13.97-18.47,14.1c-2.66,0.04-5.32-0.1-7.98-0.16
		c-6.49-0.13-7.48-0.95-7.2-7.62c0.33-7.97,0.53-15.96,1.03-23.91c0.55-8.87,0.55-17.73,0.7-26.59c0.1-6.35,1.58-8.01,7.94-7.73
		c10.04,0.45,17.34,5.57,21.73,14.47C178.92,538.61,179.6,546.17,179.55,554.86z M150.66,527.82c-2.22,0.66-1.87,2.61-1.97,4.26
		c-0.06,0.95-0.17,2.63,1.08,2.4c2.26-0.4,2.27-2.7,2.56-4.51C152.5,528.88,152,528.01,150.66,527.82z"/>
	<path d="M624.32,236.59c0.31-3.74,0.96-7.81,2.79-11.63c4.31-8.97,14.42-10.93,21.69-4.09c3.57,3.35,8.02,5.78,8.58,11.74
		c0.62,6.62,1.76,12.77-1.03,19.51c-5.42,13.08-21.02,9.92-26.35,2C627.34,250.16,624.38,241.72,624.32,236.59z"/>
	<path d="M277.26,241.19c-0.31,7.55-0.45,15.14-4.5,21.93c-3.13,5.24-6.79,6.41-12.35,3.91c-9.12-4.09-13.82-15.99-10.66-27.02
		c0.65-2.28,1.41-4.52,2.05-6.8c1.84-6.59,7.36-10.47,13.96-9.76c7,0.75,11.04,5.09,11.48,12.41
		C277.34,237.63,277.26,239.41,277.26,241.19z"/>
	<path d="M240.84,408.49c0.62,5.85-1.11,11.57-5.74,16.37c-6.59,6.84-18.65,4.83-22.14-4c-3.07-7.76-3.11-15.98-1.46-24.02
		c1.41-6.83,6.6-10.84,12.75-10.96c6.59-0.12,12.95,4.59,15.37,11.39C240.83,400.69,240.9,404.24,240.84,408.49z"/>
	<path d="M236.15,585.57c-3.21-0.47-7.22-0.94-8.65-5.01c-1.33-3.79,0.68-7.05,3.68-9.28c3.91-2.9,8.03-5.56,12.23-8.03
		c2.94-1.73,6.76,0.42,6.42,4.01c-0.56,6.04-2.11,11.99-6.95,16.3C241.2,585.08,238.97,585.6,236.15,585.57z"/>
	<path d="M386.13,240.28c-4.27,0.34-9.58,0.75-14.88,1.18c-6.78,0.55-8.79-2.32-5.92-8.48c4.22-9.06,8.38-11.55,17.69-10.62
		c7.31,0.73,11.85,5.62,12.05,13C395.17,239.29,393.21,240.53,386.13,240.28z"/>
	<g>
		<path d="M787.18,542.72c0.11-16.91-2.63-33.8-1.71-50.85c0.37-6.86-1.24-13.81-1.77-20.73c-0.76-9.98-1.29-19.97-2.06-29.95
			c-0.39-5.04-0.53-10.06,0.07-15.08c0.64-5.32,0.57-10.62,0-15.95c-0.65-6.16-1.37-12.4-1.45-18.53
			c-0.18-14.34-2.5-28.51-2.72-42.89c-0.12-7.86-1.5-16.12-2.62-24.17c-1.22-8.74-3.43-17.51-2.36-26.45
			c0.73-6.06,0.65-12.12,0.79-18.19c0.06-2.5,0.19-5.08,0.82-7.48c2.14-8.1,2.5-16.27,1.57-24.55c-0.73-6.48-0.67-13-1.13-19.48
			c-0.39-5.55,1.11-11.3-1.33-16.68c-3.32-7.33-4.55-15.3-6.74-22.96c-2.46-8.6-2.5-17.47-1.5-26.4
			c1.15-10.25,2.46-20.42,0.58-30.89c-1.61-8.98-1.6-18.26-2.09-27.42c-1.08-20.31,3.19-40.39,2.67-60.69
			c-0.07-2.73-0.82-4.37-3.2-5.69c-13.03-7.27-27.67-6.82-41.56-6.68c-11,0.11-22.14,0.75-33.18,0.55
			c-5.33-0.1-10.7,1.03-15.91,0.07c-12.82-2.36-25.83-3.28-38.69-5.46c-8.16-1.38-16.64-1.88-25.06-1.32
			c-9.49,0.62-19.05,2.93-28.37-1.37c-1.58-0.73-3.81-0.22-5.71-0.03c-2.23,0.22-4.41,0.22-6.64,0.01
			c-24.45-2.32-48.9-4.36-73.48-4.86c-7.49-0.15-14.66,2.15-22.08,1.86c-20.19-0.8-40.43,1.63-60.6-3.07
			c-10.66-2.49-22.01-2.13-32.77-5.08c-1.83-0.5-3.8-0.58-5.72-0.68c-5.66-0.3-11.11,0.3-16.56,2.28
			c-12.12,4.39-25.09,2.92-37.61,4.71c-2.91,0.42-6.01-0.09-8.74,1.21c-4.73,2.26-9.53,3.84-14.89,3.71
			c-2.53-0.06-4.8,1.36-6.79,3.01c-1.26,1.04-2.59,2.13-4.24,2.32c-10,1.19-20.25,3.19-29.91-0.43
			c-11.05-4.14-21.82-2.46-32.77-0.71c-4.8,0.77-9.56,2.25-14.4,0.14c-1.3-0.57-2.68-0.29-3.82,0.51c-2.36,1.66-4.97,1.26-7.64,1.45
			c-7.99,0.58-15.88,1.03-23.59-1.79c-0.77-0.28-1.76,0-2.64,0.08c-13.74,1.13-27.35,0.75-40.65-3.39c-1.75-0.54-3.5-0.56-5.27-0.26
			c-2.81,0.47-5.6,0.41-8.4-0.03c-4.01-0.63-7.92-0.27-11.88,0.71c-8.19,2.01-16.42,4.11-24.98,3.29c-2.93-0.28-5.97-1.61-8.73-1.12
			c-7.56,1.33-15.11,2.99-22.45,5.23c-7.65,2.34-15.22,3.59-23.11,1.97c-2.68-0.55-5.31-0.82-7.76,0.67c-1.21,0.74-3,1.32-2.6,3.16
			c0.35,1.59,2.05,1.5,3.33,1.61c4.99,0.42,7.54,3.5,7.9,8.08c0.56,7.21,3.3,14.03,3.43,21.29c0.02,1.01-0.28,2.45,1.6,2.97
			c0.51-2.32-0.03-4.46-0.43-6.61c-0.14-0.75-0.17-1.63,0.81-1.74c0.48-0.05,1.11,0.36,1.51,0.73c2.09,1.95,3.13,14.21,0.84,15.69
			c-2.9,1.87-2.83,3.55-1.53,6.13c0.48,0.95,0.11,2.16-0.99,2.65c-1.26,0.56-1.94-0.38-2.37-1.36c-0.41-0.94-0.85-1.95-0.9-2.95
			c-0.54-10.98-6.24-21.01-5.93-32.15c0.03-1.2-0.17-2.71-2.24-3.31c0.71,3.09-0.14,5.43-2.34,7.58c-1.85,1.81-1.81,4.66-0.62,6.7
			c3.29,5.65,4.43,11.81,5.5,18.11c1.65,9.73,4.04,19.35-0.05,29.1c-1.31,3.12-1.8,6.57-1.66,10.03
			c0.55,13.75,0.98,27.49,4.24,40.98c1.46,6.04,2.38,12.27,1.86,18.51c-1.45,17.43-0.01,34.78,1.29,52.13
			c0.58,7.69,0.84,15.36,0.55,23.07c-0.15,4.01-1.82,8.28,1.77,11.78c0.31,0.3,0.17,1.13,0.13,1.7c-0.65,8.54-3.13,17.13,0.97,25.52
			c0.56,1.14,0.4,2.62,0.62,3.93c2.56,15.36,1.78,30.78,1.08,46.22c-0.48,10.7,0.04,21.35,5.25,31.15c0.84,1.59,0.16,3.16-0.21,4.75
			c-1.02,4.39-1.72,9.11,0.04,13.14c3.33,7.59,1.43,15.51,2.47,23.22c0.93,6.84,0.37,13.84-1.45,20.76
			c-1.45,5.5-0.4,11.39-1.5,17.13c-0.9,4.7-1.01,9.84,0.39,14.57c4.99,16.91,6.03,34.27,6.4,51.73c0.08,3.59,0.73,7.01,1.62,10.48
			c3.25,12.68,4.92,25.63,3.76,38.66c-1.12,12.68-2.77,25.26-2.9,38.05c-0.1,9.73-0.93,19.53-1.92,29.22
			c-1.12,10.87-0.28,21.51,1.55,32.07c1.61,9.29,1.27,18.53,0.97,27.8c-0.13,4.1,0.29,8.38-1.21,12.33
			c-4.79,12.65-4.79,26.15-6.91,39.25c-1.06,6.54-1.08,13.26-2.97,19.71c-0.47,1.6-0.8,3.36,0.32,4.7c2.43,2.92,2.29,6.16,1.97,9.66
			c-0.34,3.82-0.2,7.69-0.18,11.54c0.01,2.13,0.87,4.33,3.25,3.81c8.24-1.8,17.04-0.53,24.86-4.11c7.27-3.32,15.1-4.05,22.67-5.95
			c3.91-0.98,7.92-0.41,11.92-0.42c10.87-0.01,21.7,1.68,32.66,0.02c6.09-0.93,12.36-2.52,18.34-2.26
			c10.58,0.45,21.13,2.43,31.61,4.23c14.62,2.51,28.89,2.6,43.54-1.07c14.47-3.62,29.57-5.08,44.49-3.69
			c10.21,0.95,20.38,2.89,30.58,4.31c7.61,1.06,15.16,3.22,22.81,3.41c5.53,0.14,11.15,1.44,16.65,0.21
			c13.02-2.91,25.91-3.57,38.88,0.53c11.63,3.68,23.63,2.63,35.08-0.14c7.55-1.83,15.21-3.64,22.7-5.97
			c9.98-3.1,20.24-5.61,30.96-4.5c8.69,0.9,17.41-1.86,26.12,0.06c0.67,0.15,1.57,0.03,2.16-0.31c5.58-3.24,11.09-2.19,16.66,0.04
			c1.08,0.43,2.38,0.87,3.45,0.66c7.24-1.41,14.01,1.4,20.85,2.61c8.01,1.42,15.85,1.62,23.84,0.87c3.37-0.32,6.77-1.42,10.14-0.42
			c3.99,1.18,7.86,0.84,11.84-0.02c5.05-1.1,10.15-2.4,15.37-1.1c6.72,1.67,13.53,1.32,20.31,0.87c12.34-0.83,24.65-2.33,37.04-0.76
			c1.31,0.17,2.66,0.05,3.99-0.02c9.75-0.51,19.51-0.96,29.25-1.58c7.56-0.49,15.07,0.96,22.56,0.69c8.7-0.31,17.38-0.85,26.1-0.73
			c3.68,0.05,7.57-1.4,11-0.61c7.24,1.67,14.63,2.23,21.85,3.75c4.12,0.87,8.02,2.87,8.54-3.85c0.06-0.81,1.28-1.56,2.02-2.28
			c1.11-1.07,2.02-2.33,1.9-3.88c-0.68-8.24-0.41-16.75-2.55-24.61c-1.8-6.6-2.58-12.99-2.37-19.63c0.72-22.9,3.46-45.64,5.63-68.42
			c0.86-9.02,3.6-17.76,3.9-26.76c0.48-14.2,0.39-28.41,0.89-42.62C789.78,577.57,787.07,560.23,787.18,542.72z M37.71,164.12
			c-0.51,1.79-0.72,4.51-2.93,4.38c-2.58-0.16-1.78-2.95-1.86-4.7c-0.15-3.38-0.04-6.76-0.04-10.15c-0.54-1.43-1.08-3.54,0.69-3.8
			c2.44-0.36,1.74,2.14,2.15,3.53c0.57,1.98,0.96,4.01,1.56,5.98C37.75,160.93,38.17,162.5,37.71,164.12z M38.45,231.75
			c0.05-0.88,0.45-1.86,1.54-1.88c1.5-0.04,2.11,1.2,2.21,2.35c0.34,3.83,0.48,7.67,0.69,11.51c-0.11,0.01-0.22,0.01-0.33,0.02
			c0.21,3.1,0.46,6.2,0.62,9.3c0.04,0.87-0.05,1.94-1.09,2.2c-1.1,0.27-1.54-0.71-1.85-1.53C37.59,246.56,38.04,239.15,38.45,231.75
			z M42.07,326.76c-0.05,0.93-0.37,1.91-1.56,1.62c-1.03-0.25-1.13-1.27-1.06-2.19c0.06-0.78,0.39-1.41,1.32-1.46
			C41.85,325,42.12,325.83,42.07,326.76z M42.6,293.47c-0.9-10.32-1.73-20.64-2.49-30.97c-0.09-1.23-0.19-3.08,1.54-3.22
			c1.71-0.13,1.84,1.72,2.07,2.95c0.48,2.61,0.73,5.27,1.07,7.91c-0.13,0.01-0.26,0.02-0.38,0.04c0.46,7.63,0.93,15.26,1.36,22.9
			c0.07,1.26,0.58,3.11-1.18,3.33C42.81,296.63,42.7,294.69,42.6,293.47z M45.66,430.25c-2.07-0.07-1.85-2.32-1.84-3.85
			c0.01-1.39-0.08-3.54,1.75-3.48c2.05,0.07,1.62,2.37,1.98,3.81C47.34,428.21,47.37,430.31,45.66,430.25z M53.7,525.03
			c1.11-0.19,1.41,0.86,1.68,1.68c0.88,2.67,1.43,5.4,1.49,8.22c0.01,0.15,0.03,0.3,0,0.44c-0.26,1.64,0.55,4.35-1.62,4.43
			c-2.21,0.08-1.59-2.68-1.82-4.28c-0.4-2.76-0.62-5.55-0.82-8.33C52.55,526.34,52.61,525.22,53.7,525.03z M51.98,601.26
			c0.55-1.51-1.05-4.37,1.28-4.39c2.24-0.02,1.19,2.83,1.25,4.42c0.06,1.6,0.91,4.44-1.33,4.39
			C50.84,605.62,52.39,602.83,51.98,601.26z M47.71,791.98c-1.62-0.33-3.21-0.74-3.58-2.62c-0.21-1.05,0.51-1.78,1.51-1.36
			c1.54,0.64,3.42,1.2,3.74,3.15C49.52,792,48.39,791.94,47.71,791.98z M51.43,614.34c0.39-1.73-0.24-4.1,1.82-4.18
			c2.21-0.08,1.76,2.27,1.74,3.76c-0.02,1.57-0.14,3.74-2.14,3.7C50.66,617.57,52.01,615.28,51.43,614.34z M52.76,662.74
			c1.7,1.83,1.89,3.79,1.49,6.1C51.33,666.56,51.31,666.47,52.76,662.74z M55.29,690.31c-0.65,0.18-1.08-0.24-1.44-0.75
			c-1.42-2.01-0.85-9.24,1.16-11.84c1.58,3.63,1.16,7.32,1.45,10.89C56.51,689.32,56.11,690.08,55.29,690.31z M55.46,583.98
			c-0.18,0.84-0.38,1.99-1.45,1.95c-1.38-0.05-1.42-1.38-1.4-2.36c0.12-5.19,0.8-10.37,2.14-15.33c1.39-5.14,0.22-10.33,1.16-15.41
			c0.23-1.25-0.19-3.24,1.3-3.45c1.98-0.28,1.78,1.94,2.23,3.21c0.39,1.1,0.48,2.3,0.54,2.6C58.96,565.45,57.49,574.76,55.46,583.98
			z M63.32,121.29c-2.74-0.9-2.36-3.68-3.01-5.8c-0.24-0.8-0.18-2.4,0.67-2.15c3.04,0.89,1.88,4.19,3.05,5.94
			C64.1,120.28,64.02,121.52,63.32,121.29z M73.74,339.33c-0.22,1.36,0.23,3.45-1.85,3.4c-1.66-0.04-1.53-1.94-1.59-3.21
			c-0.16-3.54-0.21-7.09-0.27-10.64c-0.01-0.87-0.14-2.05,0.96-2.21c1.38-0.21,1.6,1.1,1.76,2.09c0.46,2.91,0.82,5.85,1.21,8.77
			c-0.07,0.01-0.13,0.02-0.2,0.02C73.76,338.16,73.84,338.76,73.74,339.33z M99.13,33.58c0.22-0.8,0.96-1.01,1.73-1.03
			c0.82,0.13,1.42,0.54,1.18,1.44c-0.22,0.8-0.93,1.1-1.72,1.02C99.51,34.94,98.88,34.49,99.13,33.58z M100.51,256.6
			c-2.06-3.01-1-5.56-0.41-8.04C101.61,251.01,101.6,253.47,100.51,256.6z M89.39,228.26c1.33-0.45,1.61,0.92,1.83,1.88
			c0.26,1.14,0.3,2.3-0.71,3.12c-1.56-0.17-1.54-1.35-1.69-2.29C88.66,230.01,88.19,228.66,89.39,228.26z M85.27,664.5
			c-0.44,1.57-1.26,2.9-2.85,3.52c-1.31-0.33-1.13-1.28-0.92-2.11c0.36-1.43,0.88-2.88,2.7-2.93
			C85.06,662.96,85.49,663.72,85.27,664.5z M85.44,174.7c-1.52,0.31-1.91-1.18-2.22-2.27c-1.95-6.88-2.13-14-2.75-21.05
			c-0.11-1.21,0.4-2.5,1.9-2.52c1.48-0.02,1.97,1.32,2.1,2.47c0.69,6.31,1.26,12.63,1.87,18.94c-0.02,0-0.03,0-0.05,0
			c0.04,0.59,0.12,1.18,0.11,1.77C86.38,173.05,86.74,174.43,85.44,174.7z M88.14,617.49c1.65,2.47,0.65,3.77-0.64,5.69
			C86.02,620.7,86.85,619.37,88.14,617.49z M90.15,706.75c-0.29,0.66-0.77,1.39-1.63,1.16c-0.88-0.24-0.98-1.14-0.73-1.81
			c1.03-2.8,1.6-5.86,4.76-8.66C92.73,701.53,91.31,704.11,90.15,706.75z M93.92,569.32c-2.33,0.17-1.68-3.8-2.39-5.55
			c0.09-1.14,0.08-1.89,0.21-2.61c0.17-0.87,0.44-1.86,1.57-1.8c0.9,0.05,1.07,0.91,1.18,1.65c0.13,0.88,0.29,1.76,0.27,2.64
			C94.68,565.68,96.57,569.13,93.92,569.32z M99.83,780.05c-1.48-0.83-1.43-2.37-1.53-3.8c-0.05-0.76,0.33-1.72,1.21-1.28
			c1.43,0.71,1.86,2.21,1.81,3.74C101.29,779.48,100.84,780.09,99.83,780.05z M102.99,760.63c-0.43,1.66-0.76,3.44-2.6,4.18
			c-1.28-0.2-1.41-1.08-1.2-1.97c0.37-1.59,1.02-3.14,2.75-3.62C102.88,758.96,103.18,759.87,102.99,760.63z M110.44,201.15
			c-0.79,0.06-1.49-0.29-1.68-1.1c-0.21-0.91,0.42-1.29,1.16-1.43c0.87,0.02,1.57,0.29,1.75,1.11
			C111.87,200.63,111.26,201.09,110.44,201.15z M108.59,46.9c-0.26-0.74-0.01-1.64,0.91-1.55c2,0.18,2.81,1.78,3.49,3.07
			c0.13,1.33-0.21,2.26-1.27,2.17C109.58,50.42,109.15,48.52,108.59,46.9z M113.05,149.51c2.13,1.17,2.97,3.08,2.96,5.4
			c0,0.62-0.58,1.27-1.13,0.94c-2.28-1.35-2.07-3.87-3.13-6.22C112.78,149.53,112.95,149.46,113.05,149.51z M112.24,445.71
			c0.39-3.73,0.14-7.57,2.06-11.14c1.83,3.81,1.38,7.66,0.46,11.5c-0.17,0.7-0.59,1.48-1.48,1.35
			C112.38,447.3,112.16,446.42,112.24,445.71z M114.79,496.24c-1.55-4.26-1.52-7.59-0.95-10.96c0.14-0.86,0.36-1.9,1.5-1.85
			c1.05,0.05,1.4,1.05,1.55,1.91C117.52,488.87,117.39,492.29,114.79,496.24z M117.62,40.7c-1.16-0.43-2.19-1.24-2.24-2.75
			c-0.03-0.91,0.69-1.33,1.5-0.97c1.25,0.55,2.27,1.46,2.23,2.97C119.09,40.62,118.47,40.87,117.62,40.7z M120.28,596.65
			c-2-3.62-1.32-10.39,1.42-14.52C122.94,586.93,120.89,591.32,120.28,596.65z M682.73,428.88c2.83,3.29,3.91,6.08,2.48,10.5
			C683.5,435.76,682.42,432.98,682.73,428.88z M684.64,478.33c-3.27-2.81-4.08-5.69-3.98-10
			C683.2,471.59,684.34,474.35,684.64,478.33z M678.1,421.7c0.15-1.1,0.13-2.64,1.48-2.83c1.55-0.22,1.72,1.26,1.75,2.42
			c0.03,1.21-0.33,2.29-1.73,2.61C678.23,423.74,677.96,422.78,678.1,421.7z M677.07,457.67c-1.38,0-2-1.1-2.39-2.25
			c-0.26-0.75-0.18-1.47,0.84-1.69c1.31,0.24,1.96,1.2,2.39,2.33C678.2,456.82,678.05,457.66,677.07,457.67z M651.19,179.28
			c1.52-0.12,5.55,3.57,5.57,5.1c0.02,1.09-0.64,1.77-1.62,1.51c-2.54-0.69-4.25-2.49-5.27-4.85
			C649.46,180.08,650.08,179.37,651.19,179.28z M644.89,83.51c-0.09,0.96-0.82,1.23-1.55,1.04c-2.66-0.67-5.55-1.19-6.54-4.28
			c-0.34-1.07,0.73-1.41,1.7-1.43C640.52,78.78,645.02,82.06,644.89,83.51z M642.59,71.77c-2.86,0.02-4.46-0.99-5.88-3.53
			C639.58,68.39,641.32,69.18,642.59,71.77z M618.4,65.81c2.12-1.48,4.18-0.24,6.21,0.38c1.05,0.32,2.58,0.63,2.35,2.12
			c-0.24,1.51-1.73,1.2-2.94,1.25c-2.04-0.38-4.39-0.17-5.82-2.22C617.96,67.01,618.09,66.02,618.4,65.81z M622.25,208.81
			c-2.63-0.17-4.1-1.09-5.32-3.46C619.58,205.54,621.14,206.33,622.25,208.81z M610.12,273.63c-0.37-0.63-0.67-1.44,0.08-1.98
			c0.72-0.51,1.54-0.08,1.95,0.48c1.66,2.33,3.21,4.74,4.8,7.12C613.46,278.38,611.63,276.16,610.12,273.63z M617.74,337.1
			c0.02,0.87-0.49,1.43-1.39,1.28c-1-0.16-1.49-0.93-1.51-1.9c-0.02-0.86,0.46-1.36,1.38-1.31
			C617.2,335.45,617.72,336.13,617.74,337.1z M612.73,350.58c1.17-1.02,2.19,0.17,2.93,1.07c3.37,4.09,6.29,8.56,10.32,12.1
			c0.51,0.45,0.73,1.23,0.99,1.7c-0.22,1.69-1.2,2.03-2.23,1.37c-1.09-0.69-2.12-1.64-2.85-2.7c-2.5-3.65-4.86-7.39-8.41-10.19
			C612.46,353.13,611.35,351.8,612.73,350.58z M615.13,174.99c-3.02-0.15-4.37-1.59-5.47-4.67
			C612.81,171.05,614.15,172.46,615.13,174.99z M610.74,241.26c1.75,2.24,3.49,4.48,5.24,6.73c-0.33,0.27-0.65,0.55-0.98,0.82
			c-2.33-1.83-4.89-3.48-5.51-6.79C609.91,241.76,610.33,241.51,610.74,241.26z M609.19,451.37c1.12-0.87,1.93,0.29,2.5,1.06
			c1.48,2.02,2.95,4.07,4.22,6.23c4.17,7.15,8.42,14.23,13.3,20.92c1.33,1.82,2.12,3.87,2.55,5.81c0.04,0.88-0.02,1.58-0.71,1.65
			c-0.51,0.05-1.26-0.17-1.57-0.54c-1.32-1.58-2.46-3.3-3.76-4.89c-5.6-6.89-7.94-15.61-12.96-22.82c-1.09-1.57-2.39-3.01-3.45-4.59
			C608.75,453.35,608.2,452.14,609.19,451.37z M602.31,62.33c2.08,0.84,4.95,0.83,5.65,3.86c0.21,0.91-0.92,1.33-1.48,0.83
			c-2.07-1.85-6.01-0.15-7-3.41C599.06,62.24,600.95,62.24,602.31,62.33z M561.87,239.49c0.91-5.13,0.93-10.3,0.46-15.48
			c-0.2-2.16-1.01-4.74,1.8-5.74c2.6-0.93,5.64-0.99,7.32,1.49c2.17,3.19,4.38,2.38,6.77,0.86c5.97-3.79,12.17-4.11,18.67-1.6
			c2.65,1.02,4.52,2.64,5.25,5.52c2.28,8.87,5.47,17.6,3.9,26.53c0,4.19,0.16,7.9-0.05,11.58c-0.19,3.31-1.71,5.84-5.53,5.46
			c-3.59-0.35-4.41-2.93-4.25-6.1c0.51-9.93,0.5-19.8-2.11-29.53c-1.65-6.15-4.93-10.33-8.75-10.57
			c-4.49-0.28-10.22,4.17-11.92,9.81c-2.37,7.86-2.85,15.98-2.74,24.16c0.04,2.66-0.02,5.33-0.09,7.99
			c-0.09,3.34-2.13,4.7-5.18,4.83c-3.11,0.13-3.41-2.13-3.72-4.46C560.62,255.98,560.4,247.73,561.87,239.49z M590.35,320.86
			c0.94,3.36,2.88,5.72,5.6,7.67c0.57,0.41,1.07,1.06,1.37,1.7c0.55,1.15,1.75,2.55,0.52,3.61c-1.34,1.16-2.52-0.27-3.29-1.24
			c-3.48-4.39-6.88-8.86-10.22-13.36c-0.56-0.75-1.18-1.9,0.61-2.44C586.81,318.03,589.66,318.37,590.35,320.86z M590.12,248.14
			c0.03-0.69,0.76-0.88,1.31-0.52c1.43,0.93,2.02,2.25,1.72,4.42C590.92,251.1,590.04,249.88,590.12,248.14z M550.99,353.91
			c3.01-0.03,5.38,1.18,5.51,4.46c0.14,3.51-2.82,3.09-4.73,3.4c-2.99-0.13-5.73-0.32-5.65-3.86
			C546.19,354.97,548.35,353.93,550.99,353.91z M545.76,403.17c0.01,0,0.02,0,0.03,0c0-4.74-0.03-9.48,0.01-14.22
			c0.03-3.65,1.2-6.99,3.12-10.06c0.72-1.15,1.65-2.29,3.21-1.84c1.54,0.44,1.68,1.9,1.81,3.25c0.01,0.15,0.02,0.3,0.01,0.44
			c-0.67,12.6,1.29,25.14,0.72,37.73c-0.12,2.6,0.31,5.79-3.66,5.88c-4.03,0.09-5.33-2.41-5.27-6.09
			C545.81,413.24,545.76,408.21,545.76,403.17z M548.62,492.56c0.85-0.01,1.37,0.51,1.7,1.18c0.85,1.74,1.99,3.21,3.45,4.5
			c1.35,1.19,1.22,2.66,0,3.87c-1.4,1.39-2.77,0.69-3.77-0.55c-1.72-2.13-2.23-4.75-2.54-7.39
			C547.39,493.42,547.75,492.75,548.62,492.56z M547.26,488.89c-1.82,0.83-1.62-1.84-2.25-2.96c-0.67-1.19-1.76-2.31-1.58-4.16
			c2.23,0,3.07,1.25,3.75,2.51C548.01,485.8,549.14,488.03,547.26,488.89z M549.24,471.58c1.2,0.13,1.37,1.28,1.55,2.28
			c-0.01,0.73-0.01,1.71-0.81,1.75c-1.66,0.09-1.44-1.44-1.63-2.47C548.21,472.45,548.26,471.47,549.24,471.58z M538.32,193.78
			c3.28-0.24,4.33,1.93,4.61,4.77c-0.17,3.28-1.74,5.35-5.19,5.32c-2.84-0.02-4.96-1.35-5-4.47
			C532.69,195.77,534.94,194.03,538.32,193.78z M533.22,243.63c0.26-6.35,0.07-12.72,0.14-19.08c0.03-2.81,0.42-5.56,4.09-5.67
			c3.64-0.11,6.74,1.26,6.99,5.24c0.36,5.89,0.09,11.81,0.09,17.72c0.4,7.25,0.51,14.48-0.45,21.7c-0.45,3.38-1.62,5.69-5.4,5.65
			c-3.99-0.04-5.9-2.23-6.16-6.07C532.07,256.59,532.95,250.12,533.22,243.63z M543.21,459.13c-4.96-12.09-10.65-23.89-13.87-36.68
			C532.94,424.83,544.32,454.84,543.21,459.13z M541.64,471.51c-0.09,0.32-0.7,0.82-0.9,0.75c-1.65-0.6-1.51-2.35-2.15-3.6
			c-0.32-0.63-0.56-1.38,0.06-2.05c0.88-0.34,1.37,0.27,1.81,0.84C541.38,468.64,542.05,469.95,541.64,471.51z M486.35,154.03
			c2.15,0.72,2.96,2.43,3.74,5.24c-2.94-1.07-4.7-1.98-4.94-4.35C485.09,154.29,485.73,153.83,486.35,154.03z M488.47,186.4
			c-2.97-0.2-4.19-1.44-5.39-4.14C486.05,182.74,487.12,184.14,488.47,186.4z M478.52,172.05c0.76,0.17,1.32,0.61,1.35,1.48
			c-0.24,0.91-0.89,1.11-1.68,0.92c-0.75-0.18-1.41-0.64-1.32-1.49C476.96,172.02,477.74,171.88,478.52,172.05z M476.07,224.86
			c1.6-8.57,7.89-13.42,18.37-13.28c5.1,0.44,10.94,1.78,14.88,7.2c1.04,1.42,2.19,3.16,0.75,4.84c-1.47,1.72-3.42,0.86-4.84-0.14
			c-5.86-4.12-11.84-3.83-18.08-1.03c-3.13,1.41-5.07,3.53-5.12,7.07c-0.06,3.7,2.19,5.76,5.39,6.73
			c7.22,2.18,14.52,4.02,21.19,7.77c6.27,3.52,8.11,7.3,6.6,14.71c-1.19,5.82-4.11,8.17-11.01,8.89c-2.06,0.21-4.19,0.22-6.15,0.79
			c-8.25,2.37-13.54-1.89-18.11-7.85c-0.88-1.15-2.12-2.44-0.98-3.96c1.25-1.68,3.22-1.62,4.84-0.76c1.67,0.88,3.07,2.27,4.59,3.42
			c6.32,4.78,13.43,3,16.37-4.12c1.79-4.32,0.52-7.47-4.02-9.14c-4.16-1.52-8.48-2.62-12.68-4.04
			C478.82,238.83,474.6,232.73,476.07,224.86z M466.04,28.31c-5.7,0.74-11.4,1.75-17.06-0.36C454.68,26.84,460.4,24.51,466.04,28.31
			z M442.38,136.51c-1.58-0.93-2.59-2.31-2.6-4.25c-0.01-0.83,0.54-1.58,1.39-1.31c2.01,0.63,2.31,2.5,2.58,4.25
			C443.87,136.01,443.48,136.66,442.38,136.51z M442.51,119.46c-4.13-2.35-8.35-4.59-11.29-8.54
			C436.36,111.92,439.98,114.96,442.51,119.46z M419.19,227.76c1.79-7.07,9.44-13.26,17.65-14.27c7.95-0.98,15.07,2.73,18.79,9.85
			c0.66,1.27,1.86,2.7,0.69,4.08c-1.26,1.5-3.02,0.68-4.56,0.23c-2.21-0.65-3.69-2.41-5.48-3.7c-5.68-4.09-12.58-3.9-16.62,0.44
			c-4.26,4.58-3.35,9.48,2.25,12.25c3.75,1.85,7.79,1.43,11.77,1.59c9.1,0.36,15.24,5.76,16.46,14.39
			c1.02,7.18-1.99,12.37-8.67,15.18c-4.45,1.87-9.06,2.71-14.52,2.38c-6.08,1.07-11.23-1.14-14.56-7.29
			c-0.82-1.51-1.72-2.88-0.41-4.44c1.18-1.41,2.88-1.68,4.46-1.06c1.77,0.7,3.43,1.71,5.06,2.71c2.02,1.23,3.94,2.69,6.33,3.13
			c3.69,0.67,6.85-0.42,8.87-3.61c1.97-3.11,0.88-6.04-1.47-8.46c-4.62-4.75-9.83-8.44-16.67-9.37
			C421.86,240.87,417.54,234.25,419.19,227.76z M416.57,439.71c1.48,0.81,0.98,2.24,0.93,3.49c-0.32,8.67-2.48,17.21-1.85,25.95
			c0.07,1.03-0.04,2.28-1.25,2.53c-1.26,0.26-1.32-0.91-1.31-1.78c0.12-9.73,0.54-19.44,2.26-29.04
			C415.45,440.28,415.78,439.77,416.57,439.71z M413.79,227.31c1.52,0.64,1.51,2.04,1.53,3.29c0.02,1.12-0.04,2.72-1.61,2.51
			c-1.42-0.19-1.18-1.8-1.17-2.91C412.54,229.12,412.31,227.83,413.79,227.31z M411.83,500.94c0.06-0.86,0.49-1.87,1.62-1.66
			c1,0.18,1.36,1.2,1.31,2.06c-0.21,4.15-0.53,8.3-0.82,12.46c-0.55-0.01-1.09-0.03-1.64-0.04
			C410.97,509.57,411.53,505.23,411.83,500.94z M406.44,191.17c0.05-1.18,0.34-2.62,1.9-2.27c1.69,0.38,1.7,2.12,1.96,3.49
			c-0.1,1.31-0.43,2.56-1.98,2.24C406.54,194.27,406.37,192.66,406.44,191.17z M401.2,39.97c1.91-0.08,3.05,1.1,3.28,2.89
			c0.21,1.67-1.07,1.82-2.45,1.77c-1.42-0.41-3.43-0.38-3.59-2.44C398.31,40.59,399.83,40.03,401.2,39.97z M394.87,189.24
			c1.36,5.04,2.34,10.1,0.21,15.23c-2.29-4.83-2.87-9.85-2.93-14.95c-0.01-0.85,0.15-1.98,1.2-2.1
			C394.48,187.29,394.66,188.43,394.87,189.24z M391.89,59.22c0.78-0.07,1.49,0.23,1.69,1.04c0.23,0.92-0.4,1.28-1.21,1.41
			c-0.78-0.03-1.51-0.25-1.71-1.05C390.44,59.7,391.08,59.28,391.89,59.22z M376.09,18.66c0.86-0.04,1.74,0.15,3.5,0.33
			c2.01,0,4.86-1.34,7.8-0.42c0.96,0.3,2.22,0.38,2.17,1.72c-0.05,1.28-1.25,1.52-2.25,1.69c-3.81,0.64-7.57-0.51-11.37-0.48
			c-0.77,0.01-1.5-0.38-1.54-1.25C374.36,19.18,375.15,18.7,376.09,18.66z M372.17,41.97c2.57,0.55,5.27,1.21,7.09,3.6
			c0.39,0.51,0.24,1.32-0.35,1.53c-2.81,0.95-5.01-1.03-7.48-1.74c-1.05-0.3-2.49-0.77-2.08-2.31
			C369.68,41.82,370.97,42.03,372.17,41.97z M366.14,20.17c1.62,0.2,3.42,0.12,3.56,2.06c0.12,1.71-1.46,2.1-2.81,2.09
			c-1.6-0.01-3.63-0.1-3.66-2.22C363.21,20.5,365.04,20.49,366.14,20.17z M354.91,249.61c1.13-8.89,4.19-17.27,7.52-25.5
			c2.36-5.83,10.32-9.64,17.14-8.63c4.23,0.63,8.42,1.65,12.58,2.66c1.09,0.26,2.33,0.91,2.98,1.78c3.58,4.76,6.9,9.71,7.43,15.87
			c0.55,6.5-3.39,10.46-10.2,10.16c-7.27-1.42-14.71,0.34-22.16,1.37c-5.21,0.73-6.7,3.64-4.74,8.54
			c3.07,7.68,10.41,11.25,18.41,8.87c3.83-1.14,7.6-2.48,11.43-3.62c1.26-0.37,2.8-0.67,3.51,0.9c0.58,1.29-0.49,2.19-1.27,3.08
			c-0.19,0.22-0.42,0.42-0.63,0.62c-6.67,6.32-23.24,8.52-31.35,4.16C357.89,265.76,353.82,258.21,354.91,249.61z M350.65,209.06
			c0.31,1.42,0.61,2.87-0.87,5.45c-3.18-9.62-5.01-18.41-6.7-27.22c-0.53-2.75-0.69-5.58-0.89-8.38c-0.07-0.95-0.44-2.36,0.92-2.64
			c1.18-0.24,1.69,1.04,2.22,1.89c1.27,2.05,2.03,4.33,2.09,6.72C347.61,193.07,348.93,201.09,350.65,209.06z M342.85,208.83
			c-2.3-2.39-2.7-5.2-2.58-9.15C343.53,202.82,343,205.87,342.85,208.83z M338.76,56.82c2.69,0.04,4.53,1.55,6.6,3.79
			c-1.03,0.36-1.34,0.59-1.55,0.52c-2.17-0.74-4.62-1.04-5.77-3.44C337.98,57.54,338.52,56.82,338.76,56.82z M337.34,137.05
			c1.2,0.34,2.04,1.08,2.21,2.36c-0.14,0.92-0.69,1.34-1.51,1.09c-1.23-0.38-1.91-1.33-1.92-2.61
			C336.1,137.18,336.68,136.87,337.34,137.05z M330.52,47.66c2.36,0.28,3.96,1.7,5.1,3.57c0.16,1.11-0.42,1.55-1.26,1.42
			c-2.27-0.37-4.2-1.4-5.08-3.65C328.95,48.14,329.67,47.55,330.52,47.66z M322.81,124.12c0.29-0.35,1-0.52,1.51-0.51
			c1.13,0.04,8.9,8.3,8.88,9.55c-0.13,0.19-0.28,0.67-0.6,0.83c-0.74,0.37-1.48,0.03-2.01-0.48c-2.52-2.43-5.02-4.89-7.48-7.39
			C322.6,125.59,322.29,124.76,322.81,124.12z M321.78,158.44c1.11,0.22,1.76,0.93,1.74,2.08c-0.02,0.85-0.61,1.31-1.45,1.17
			c-0.97-0.16-1.48-0.88-1.55-1.83C320.45,159.04,320.87,158.51,321.78,158.44z M312.05,133.42c1.29,0.27,1.89,1.21,2.11,2.4
			c0.14,0.75-0.08,1.57-1.03,1.44c-1.14-0.16-1.52-1.21-1.83-2.17C311.07,134.39,311.01,133.64,312.05,133.42z M313.36,219.21
			c2.61-1.02,5.33-1.8,8.06-2.44c9.27-2.16,17.16,2.55,19.76,11.69c0.59,2.06,1.13,4.25-1.38,5.38c-2.24,1.01-3.61-0.51-4.67-2.25
			c-3.32-5.41-7.97-8.5-14.44-7.21c-6.71,1.34-10.27,6.2-11.71,12.53c-1.04,4.6-1.83,9.32-2.09,14.03
			c-0.65,12,7.34,16.53,17.57,17.12c3.82,0.22,5.76-3.23,8.01-5.72c1.48-1.64,2.65-3.56,4.18-5.15c1.03-1.08,2.5-1.72,4.04-0.91
			c1.38,0.73,1.51,2.14,1.43,3.49c-0.31,5.67-2.73,10.26-7.39,13.51c-7.68,5.36-18.73,3.94-24.9-3.1
			c-7.72-8.81-12.05-18.81-12.07-27.86C297.74,231.89,303.69,222.98,313.36,219.21z M334.78,526.31c-0.58,2.57-1.24,5.76-2.06,8.9
			c-0.23,0.9-0.55,2.33-1.96,1.83c-0.97-0.35-0.72-1.54-0.51-2.37c0.75-3.02,1.27-6.07,1.39-9.19c0.05-1.26,0.04-3.15,1.81-3.02
			C335.29,522.57,334.68,524.42,334.78,526.31z M323.09,521.25c-1.62,7.07-3.31,14.13-5.1,21.16c-0.32,1.27-0.25,3.61-2.15,3.24
			c-1.7-0.33-0.81-2.54-1-3.87c-0.54-7.6,1.83-14.62,4.08-21.65c0.47-1.48,1.15-3.65,3.11-3.12
			C324,517.54,323.44,519.72,323.09,521.25z M321.12,553.77c-0.1,0.12-1.03-0.12-1.07-0.3c-0.66-2.95,0.77-5.35,1.87-8.23
			c0.8,0.56,1,0.62,1.02,0.72C323.64,548.87,322.98,551.47,321.12,553.77z M316.05,455.86c-0.96,3.24-1.92,6.65-2.98,10.02
			c-0.26,0.85-0.84,1.69-1.91,1.49c-1.07-0.2-1.42-1.22-1.17-2.06c1.11-3.81,2.33-7.6,3.6-11.36c0.24-0.71,0.96-1.25,1.78-0.71
			C316.24,453.82,315.97,454.81,316.05,455.86z M317.82,439.56c0.61,0.57,0.79,0.66,0.82,0.78c0.66,2.53,0.79,4.97-1.31,6.96
			c-0.16,0.15-1.04-0.06-1.12-0.28C315.19,444.28,315.94,441.93,317.82,439.56z M322.92,504.04c0.81-3.39,1.68-7.11,2.6-10.81
			c0.18-0.73,0.59-1.43,1.45-1.43c0.91,0,1.35,0.77,1.19,1.5c-0.87,3.99-0.37,8.25-2.28,12.03c-0.4,0.79-0.86,1.77-1.87,1.57
			C322.63,506.64,322.95,505.38,322.92,504.04z M323.1,478.01c0.63-1.94,0.28-4.63,2.87-5.28c0.9-0.23,0.76,1.29,0.75,2.37
			c-0.73,1.66-0.11,4.44-2.88,5C322.89,480.29,322.85,478.8,323.1,478.01z M328.12,405.85c-0.38-3.95,0.81-6.48,1.79-9.03
			c0.27-0.7,0.89-1.3,1.72-1.05c1.1,0.33,1.2,1.34,0.85,2.18C331.49,400.36,330.77,402.95,328.12,405.85z M334.18,387.99
			c-1.73-0.11-1.61-1.83-1.44-3.11c0.19-1.43,0.46-3.23,2.32-3.13c1.8,0.09,1.45,1.81,1.45,3.11
			C336.07,386.17,336.09,388.11,334.18,387.99z M305.41,374.09c-0.08,0.1-1.02-0.2-1.04-0.37c-0.38-3.12,0.51-5.92,2.3-8.78
			c0.59,0.47,0.78,0.55,0.8,0.65C307.98,368.71,307.44,371.59,305.41,374.09z M303.95,348.39c-0.19,1.27-0.28,2.73-1.97,3.06
			c-1.35-0.44-1.34-1.54-1.18-2.56c0.2-1.28,0.33-2.97,2.06-2.94C304.25,345.97,304.09,347.41,303.95,348.39z M294.85,320.81
			c1.5,0.18,0.94,2.15,1.14,3.39c-0.29,1.14,0.29,3.16-1.51,2.95c-1.46-0.17-1.12-2.15-1.08-3.39
			C293.45,322.6,293.04,320.59,294.85,320.81z M293.33,374.57c0.11-5.7,3.51-9.56,5.08-14.11c0.14-0.42,0.91-0.94,1.31-0.89
			c0.93,0.12,0.97,1.02,0.78,1.73c-1.24,4.67-2.35,9.4-4.7,13.69c-0.41,0.74-0.81,1.83-1.89,1.34
			C292.98,375.91,293.35,374.8,293.33,374.57z M272.23,50.95c1.54,0.47,2.29,1.73,2.42,3.24c-0.19,1.11-0.74,1.83-1.78,1.64
			c-1.79-0.33-2.19-1.8-2.23-3.34C270.61,51.51,271.14,50.62,272.23,50.95z M257.3,62.09c1.23,0.19,2.2,0.77,2.37,2.13
			c0.1,0.84-0.4,1.45-1.26,1.42c-1.32-0.05-2.15-0.87-2.39-2.13C255.86,62.63,256.4,62.17,257.3,62.09z M252.42,178.76
			c0.1,0.57,0.02,1.18,0.02,2.2c-0.51,1.39,0.98,4.81-1.6,4.75c-2.65-0.07-1.64-3.51-1.9-5.57c-0.05-0.43-0.01-0.89,0.08-1.32
			c0.26-1.26,0.12-3.11,1.78-3.14C252.65,175.62,252.21,177.54,252.42,178.76z M248.38,139.46c-2.2-0.68-3-2.63-3.59-4.6
			c-0.28-0.92,0.36-1.45,1.24-1.09c1.96,0.8,3.41,2.15,4.03,3.96C250,139.1,249.42,139.78,248.38,139.46z M245.64,67.27
			c1.94,0.4,3.27,1.94,3.93,3.73c0.46,1.24-0.65,1.74-1.88,1.9c-2.04-0.23-3.43-1.31-3.63-3.52
			C243.97,68.32,244.38,67.01,245.64,67.27z M266.35,214.63c4.87,0.99,9.57,3.01,14.21,4.91c2.81,1.15,3.89,3.99,4.54,6.78
			c1.24,5.34,2.24,10.73,2.06,16.27c-0.09,7.29-0.91,14.48-3.47,21.37c-3.77,10.15-11.77,14.66-22.43,12.76
			c-13.4-2.4-16.45-5.73-19.75-19.14c-2.33-9.47-2.42-18.46,0.66-27.88C246.34,216.91,253.2,211.95,266.35,214.63z M253.57,394.63
			c-0.43-5.24,0.88-10.05,3.7-14.48C257.91,385.41,256.43,390.18,253.57,394.63z M239.7,46.7c0.48,0.84,0.98,2.45-0.28,2.64
			c-2.67,0.4-4.41-1.55-6.77-3.63C235.59,45.33,237.98,43.69,239.7,46.7z M237.38,60.43c-0.35,0.93-1.05,0.95-1.76,0.63
			c-0.96-0.43-1.87-1.06-1.61-2.27c0.19-0.9,1.01-0.98,1.74-0.66C236.72,58.56,237.42,59.25,237.38,60.43z M207.73,138.43
			c0.16-0.78,0.66-1.38,1.52-1.24c0.89,0.15,1.09,0.89,0.94,1.68c-0.15,0.79-0.62,1.3-1.5,1.27
			C207.85,139.85,207.57,139.23,207.73,138.43z M205.04,151.13c0.26,1-0.16,1.69-1.1,1.93c-1.66-0.33-2.32-1.41-2.48-2.82
			c-0.11-0.99,0.31-1.86,1.45-1.66C204.22,148.81,204.75,149.96,205.04,151.13z M202.39,206.04c0.05,0.85-0.49,1.36-1.31,1.39
			c-1,0.04-1.67-0.5-1.71-1.53c-0.04-0.83,0.49-1.3,1.31-1.43C201.71,204.5,202.33,205.03,202.39,206.04z M200.5,38.97
			c1.19,0.31,2.79,0.34,2.79,2.12c0,1.09-1.11,1.29-2.01,1.17c-1.31-0.17-2.84-0.36-2.87-2.11C198.4,39.02,199.51,38.98,200.5,38.97
			z M194.04,158.49c1.3,0.49,1.52,1.62,1.57,2.82c0.03,0.63-0.28,1.27-0.97,1.15c-1.36-0.24-1.83-1.35-1.91-2.58
			C192.67,159.07,193.06,158.48,194.04,158.49z M150.47,396.08c0.28,5.02,1.12,10,1.71,15c0.53,4.57,2.89,7.7,7.31,9.12
			c4.49,1.44,8.52,1.56,12.05-2.63c2.05-2.43,4.07-4.58,4.55-7.86c0.4-2.72,2.2-4.07,4.9-4.27c3.3-0.24,6.52-0.01,9.48,1.68
			c3.27,1.87,4.61,4.5,3.18,8.19c-0.75,1.93-1.66,3.82-2.24,5.8c-4.05,13.72-14.34,18.52-27.41,18.73
			c-4.25,0.07-5.73,1.46-5.07,5.33c1.27,7.45-0.9,14.67-1.39,22c-0.12,1.77-0.5,4.88-2.32,4.75c-2.37-0.16-1.48-3.13-1.38-4.83
			c0.49-8.1,1.66-16.15,1.21-24.33c-0.16-2.88-0.77-4.77-3.37-6.05c-2.25-1.11-4.49-2.31-6.55-3.74
			c-6.59-4.58-10.71-10.49-12.11-18.77c-2.03-12.08-3.19-24-1.14-36.19c1.2-7.13,4.44-13.42,6.71-20.1
			c2.75-8.1,9.27-10.25,15.76-12.98c3.41-1.43,6.95-0.82,10.46,0.16c5,1.39,5.74,0.9,7.23-4.18c0.88-2.98,1.7-5.97,2.61-8.93
			c0.1-0.31,0.64-0.49,1.26-0.92c1.52,2.61,0.25,5.02-0.13,7.34c-1.28,7.7-1.02,8.3,5.98,11.35c7.72,3.36,14.47,16.63,12.47,24.63
			c-0.21,0.83-0.62,1.7-1.18,2.34c-4.38,5.04-16.06,3.15-18.53-2.96c-3.16-7.8-9.58-10.88-15.14-7.29c-1.81,1.17-2.97,2.87-3.97,4.7
			C151.15,378.94,149.99,387.39,150.47,396.08z M183.63,449.54c-0.28,0.15-1.02,0-1.17-0.24c-1.3-2.05,0.18-3.95,0.46-5.91
			c0.13-0.93,0.47-2.32,1.89-1.84c1.03,0.35,0.49,1.53,0.55,2.07c-0.09,0.44-0.1,0.6-0.16,0.73
			C184.51,446.04,185.79,448.34,183.63,449.54z M176.96,506.57c-0.23,1.23-0.32,2.71-1.9,3.06c-0.91,0.2-1.22-0.67-1.15-1.44
			c0.12-1.33,0.38-2.75,1.9-3.12C176.75,504.84,176.92,505.74,176.96,506.57z M166.18,483.65c0.36-2.15-0.07-4.68,2.37-5.03
			c2-0.29,2.01,1.83,1.89,3.27c-0.16,2.05-0.29,4.87-2.48,5.21C165.55,487.47,166.87,484.64,166.18,483.65z M130.65,269.36
			c-2.55-2.08-2.77-4.24-2.36-6.65C130.65,264.05,131.23,266.05,130.65,269.36z M139.89,285.13c-0.03-0.91,0.19-1.85,1.17-2.13
			c1.12-0.33,1.6,0.47,1.69,1.42c0.1,1.07-0.15,2.04-1.33,2.44C140.22,286.87,139.92,286.08,139.89,285.13z M154.02,318.65
			c-0.69,1.9,0.62,5.01-1.75,4.99c-2.48-0.02-1.96-3.16-1.95-5.07c0.01-1.88-0.75-5.19,1.76-5.11
			C155.25,313.55,153.2,317,154.02,318.65z M149,279.91c-1.59,0.01-2.29-1.16-2.5-2.56c-0.18-1.19,0.44-2.07,1.67-2.1
			c1.6-0.04,2.3,1.02,2.52,2.37C150.6,278.84,150.28,279.9,149,279.91z M170.62,38.71c0.57,0.47,1.11,1.15,0.55,1.9
			c-0.53,0.71-1.34,0.47-2.03,0.18c-2.82-1.18-5.62-2.38-9.38-3.98C164.62,34.58,167.7,36.32,170.62,38.71z M144.82,37.35
			c2.3,0.53,3.86,1.96,4.49,4.14c-0.1,1.39-0.76,2.25-1.97,1.99c-2.42-0.53-3.58-2.43-4.13-4.65
			C142.95,37.79,143.82,37.12,144.82,37.35z M135.23,226.17c1.37-8.81,0.41-17.73,1.58-26.56c0.99-7.49,2.78-10.2,10.37-10.7
			c11.09-0.73,22.03,1.13,31.73,6.57c8.36,4.69,10.07,13.66,9.15,22.17c-2.17,20.03-5.66,21.73-24.09,22.39
			c-3.1,0.11-6.21,0.07-9.32,0.04c-4.05-0.03-5.98,2.08-6.06,6c-0.06,2.81-0.01,5.62-0.01,8.43c-0.13,0-0.26,0-0.38,0
			c0,3.25,0.17,6.51-0.05,9.75c-0.2,3-1.74,5.28-4.67,6.47c-3.56,1.46-5.66,0.56-6.85-3.07c-0.32-0.98-0.59-2.01-0.65-3.03
			C135.17,251.83,133.22,239.03,135.23,226.17z M134.57,312.44c0.92,4.08,1.96,8.18-1.18,13.31c-1.39-5.07-2.09-9.06-1.38-13.25
			c0.08-0.47,0.59-1.11,1.03-1.24C133.89,311,134.41,311.7,134.57,312.44z M124.65,165.8c0.01-1.21,0.6-2.05,1.93-1.81
			c1.28,0.23,2.71,0.44,2.86,2.22c-0.47,1.37-1.34,2.46-2.8,2.45C124.86,168.66,124.64,167.2,124.65,165.8z M131.98,202.33
			c-4.96-9.75-3.79-20.15-6.1-30.66C130.24,174.83,134.38,196.33,131.98,202.33z M126.9,476.97c0-2.17-0.7-4.03,0.98-5.37
			c0.64-0.52,1.42-0.42,2.01,0.12c1.6,1.45,1.7,3.39,1.34,5.28c-0.37,1.91-0.22,5.17-2.42,5.02
			C125.81,481.8,127.93,478.29,126.9,476.97z M131.24,609.84c-0.53,0.32-1.22,0.63-1.51,0.02c-0.28-0.58-0.18-1.39-0.09-2.08
			c0.08-0.57,0.38-1.1,0.61-1.64c1.25-2.95,2.51-5.9,4.12-9.68C136,600.38,133.79,608.29,131.24,609.84z M145.96,747.81
			c-0.73,2.86-0.57,6.28-2.67,8.98c-0.93,1.2-2.38,2.13-3.87,1.21c-1.55-0.96-0.57-2.34,0-3.52c1.21-2.52,2.44-5.04,3.69-7.55
			c0.45-0.9,0.81-2.15,2.14-1.71C146.28,745.56,146.01,746.67,145.96,747.81z M149.98,612.97c-1.07,0.16-1.02-1.3-0.8-2.12
			c0.48-1.77,0.16-4.23,2.4-4.78c1.24-0.3,1.05,1.42,1.15,2.5C152.21,610.24,152.39,612.6,149.98,612.97z M170.13,639.3
			c-0.29,2.59-0.78,4.11-2.96,4.97C166.71,641.83,167.7,640.59,170.13,639.3z M168.1,684.55c1.32-6.29,1.99-12.88,7.19-17.66
			C174.61,673.43,172.15,679.28,168.1,684.55z M177.52,595.96c0.4-2.6,1.61-4.85,4.08-5.9c1.12-0.48,1.2,0.89,1.25,1.97
			c-0.76,2.16-1.03,4.93-3.72,5.92C177.86,598.41,177.35,597.05,177.52,595.96z M181.82,745.16c-0.63,0.03-1.21-0.29-1.22-0.98
			c-0.01-1.11,0.8-1.43,1.74-1.52c0.64,0.05,1.24,0.29,1.23,0.98C183.56,744.71,182.76,745.11,181.82,745.16z M168.31,589.2
			c-5.11,0.83-10.28,1.39-14.99,1.03c-4.96,0.14-9.37-0.2-13.79-0.76c-3.97-0.51-5.74-2.36-5.49-6.46
			c0.47-7.83,0.95-15.67,0.98-23.51c0.04-13.62-1.29-27.21-0.87-40.85c0.21-6.8,1.46-8.01,8.3-7.31c8.24,0.83,16.45,1.56,24.46,4.17
			c8.15,2.65,13.27,8.15,16.67,15.54c4.75,10.33,4.81,21.27,3.3,32.26c-0.54,3.95-1.59,7.84-2.67,11.69
			C181.95,583.07,176.56,587.86,168.31,589.2z M186.61,752.3c-1.24,0-2.48-0.17-2.19-1.24c0.61-2.24,2.34-3.69,4.59-4.2
			c1.01-0.23,1.61,0.74,1.53,1.7C190.32,751.11,188.34,751.77,186.61,752.3z M193.71,603.31c-0.54,1.24-1.4,2.45-3.01,1.9
			c-1.74-0.6-1.97-2.16-1.43-3.64c1.24-3.41,2.87-6.63,6.2-9.96C195.86,596.4,195.18,599.93,193.71,603.31z M196.15,435.91
			c-1.03,0.23-0.98-1.34-0.72-2.1c0.67-1.93-0.06-4.78,2.62-5.43c1-0.24,0.83,1.57,0.89,2.75
			C198.38,432.84,198.63,435.36,196.15,435.91z M198.78,271.03c0.09-2.36,0.24-4.72,0.37-7.09c-0.05,0-0.09,0-0.14-0.01
			c0.64-13.58,1.26-27.16,1.92-40.74c0.14-2.83,0.86-5.48,4.21-5.86c3.33-0.39,4.24,2.01,4.66,4.71c0.48,3.18,2.21,3.11,4.36,1.6
			c1.7-1.18,3.29-2.51,4.96-3.73c2.2-1.62,4.64-2.64,7.4-2.65c2.37-0.01,3.48,1.44,3.54,3.67c0.06,2.31-1.07,3.45-3.49,3.58
			c-8.24,0.45-13.48,4.14-15.75,11.6c-1.59,5.24-2.5,10.66-1.05,16.18c1.62,6.16-0.19,12.03-1.77,17.87
			c-0.67,2.5-2.67,3.85-5.23,4.2C200.26,274.7,198.67,273.82,198.78,271.03z M203.34,390.41c2.96-7.81,14.79-13.38,22.91-11.54
			c3.62,0.82,7.03,2.18,10.53,3.29c6.01,1.92,8.73,6.17,10.14,11.77c1.16,4.6,1.71,9.29,2.04,14.37c-0.67,6.89-1.3,14.12-5.36,20.47
			c-3.83,5.99-9.32,8.52-16.3,7.25c-6.43-1.17-12.51-3.52-18.4-6.33c-2.91-1.39-4.97-3.69-6.09-6.75
			C198.84,412.04,199.29,401.09,203.34,390.41z M202.38,751.92c-1.11,0.11-1.62-0.33-1.6-1.22c0.02-0.95,0.5-1.72,1.41-2.05
			c0.84-0.31,1.48,0.07,1.6,0.95C203.94,750.79,203.24,751.51,202.38,751.92z M204.27,736.87c0.23-1.16,0.52-2.44,2.07-2.32
			c0.86,0.06,1.04,0.89,1,1.77c-0.28,1.09-0.64,2.3-2.13,2.22C204.31,738.5,204.12,737.63,204.27,736.87z M207.23,765.61
			c-1.18-0.17-2.51-0.44-2.68-1.84c-0.18-1.47,1.12-1.43,1.97-1.62c1.47,0.38,2.93,0.72,2.8,2.43
			C209.24,765.68,208.13,765.74,207.23,765.61z M207.17,731.15c-0.58,0.29-1.3-0.21-1.3-0.83c-0.02-3.33,3.06-4.31,4.88-6.66
			c0.5,0.67,0.66,0.79,0.66,0.9C211.35,727.62,209.85,729.8,207.17,731.15z M213.97,529.93c-0.42,2.38-1.75,4.19-4.04,5.72
			c-0.27-0.75-0.38-0.9-0.35-1.02c0.47-2.17,1.18-4.25,3.19-5.49C213.35,528.79,214.09,529.28,213.97,529.93z M234.84,659.32
			c-0.88,0.16-1.2-0.55-1.31-1.35c-0.16-1.24,0.76-3.15,1.62-3.26c1.15-0.01,1.45,0.83,1.56,1.71
			C236.9,657.86,236.39,659.03,234.84,659.32z M252.15,632.35c-0.95,1.42-1.68,3.1-3.8,4.02c-0.93-2.22,0.37-3.71,0.88-5.29
			c0.39-1.18,0.95-2.87,2.71-1.87C253.18,629.92,252.82,631.34,252.15,632.35z M256.39,620.22c-0.52,1.77-0.9,3.7-2.88,4.47
			c-1.08-0.26-1.22-1.01-0.96-1.72c0.63-1.73,0.81-3.95,2.85-4.59C256.52,618.03,256.63,619.41,256.39,620.22z M263.77,589.29
			c-1.6,1.69-2.84,0.55-4.09-0.69c-5.6-5.56-6.93-6.01-13.74-1.73c-7.54,4.74-15.01,5.67-23.13,1.94c-4.39-2.02-5.95-4.57-5.61-9.42
			c0.51-7.38,3.95-12.48,10.91-15.27c4.83-1.94,9.88-3.07,14.86-4.48c3.38-0.96,6.62-2.23,7.23-6.27c0.59-3.94-2-6.35-4.73-8.45
			c-5.15-3.96-12.62-3.58-17.52,0.81c-1.71,1.53-3.49,3.28-5.79,1.59c-2.35-1.72-1.08-4.07-0.15-6.04
			c4.17-8.8,15.95-11.37,24.39-5.3c7.96,5.73,12.31,13.42,12.3,23.37c0,2.52,0,5.03,0,7.55c0.04,0,0.08,0,0.12,0
			c0,3.55-0.09,7.1,0.03,10.65c0.1,3.08,1.07,5.83,3.96,7.49C264.67,586.12,265.47,587.5,263.77,589.29z M239.72,550.33
			c0.25-1.21,0.81-2.31,2.17-2.46c0.71-0.08,0.86,0.65,0.77,1.4c-0.32,1.04-0.65,2.27-2.12,2.34
			C239.85,551.64,239.59,550.95,239.72,550.33z M266.88,615c-1.16,0.12-1.5-0.72-1.4-1.7c0.08-0.77,0.53-1.32,1.38-1.41
			c0.88,0.12,1.21,0.72,1.2,1.51C268.04,614.18,267.71,614.91,266.88,615z M281.7,406.02c0.54-0.3,1.38-0.08,1.52,0.52
			c0.6,2.76-1.31,4.21-3.34,6.39C279.01,409.58,279.26,407.4,281.7,406.02z M281.52,492.26c0.43-2.02,1.15-4.01,3.33-4.67
			c1.06-0.32,1.41,0.73,1.41,1.87c-0.67,1.78-1.4,3.73-3.65,4.27C281.77,493.93,281.36,493.01,281.52,492.26z M283.81,473.85
			c-0.27-2.45,0.74-3.67,3.29-4.84C286.66,471.6,286.03,473.06,283.81,473.85z M287.32,482.54c1.61-3.65,3.27-7.27,4.94-10.89
			c0.32-0.69,0.91-1.31,1.73-1.11c1.35,0.33,1.16,1.5,1.15,2.42c-0.58,4.3-2.01,8.14-4.82,11.36c-0.7,0.8-1.64,1.45-2.71,0.66
			C286.75,484.35,286.96,483.36,287.32,482.54z M295.11,617.54c-3.17,8.72-6.38,17.44-9.63,26.13c-0.39,1.05-0.96,2.42-2.46,2.02
			c-1.09-0.29-0.74-1.42-0.6-2.65c2.86-8.76,5.8-17.87,8.83-26.96c0.43-1.29,1.39-2.53,2.97-1.95
			C295.87,614.73,295.57,616.28,295.11,617.54z M294.58,431.21c-2.52-0.03-3.66-1.84-3.77-4.14c-0.17-3.55-0.29-7.11-0.14-10.65
			c0.28-6.83-0.75-13.59-0.96-20.39c-0.18-5.95-2.13-8.72-6.32-9.16c-4.66-0.49-9.79,3.17-10.9,8c-0.42,1.85-0.51,3.83-0.42,5.74
			c0.42,8.76-1.02,17.43-1,26.17c0.01,3.48-1.54,5.84-5.3,5.6c-3.71-0.24-4.56-3.1-4.2-6.11c1.6-13.24,2.25-26.53,2.58-39.85
			c0.11-4.42,1.97-5.45,6.1-3.69c2.65,1.13,4.39,0.5,6.25-1.49c4.74-5.08,8.03-5.6,14.07-1.95c4.02,2.43,7.22,3.04,11.71,0.12
			c5.84-3.8,12.02-1.11,17.58,2.02c4.65,2.62,4.87,7,4.14,11.66c-1.41,9.03,0.83,18.01,0.47,27.04c-0.08,2.07,0.02,4.15-0.16,6.21
			c-0.29,3.28-2.13,5.25-5.46,5.23c-3.31-0.03-3.9-2.55-4.18-5.24c-0.71-6.63-1.16-13.27-0.91-18.13c0-5.52,0.07-9.22-0.02-12.92
			c-0.13-5.87-2.19-8.52-6.64-8.69c-5.16-0.2-9.43,3.09-9.89,8.18c-0.57,6.19-0.58,12.43,0.18,18.62c0.56,4.58,0.53,9.16,0.28,13.75
			C297.55,429.08,297.2,431.24,294.58,431.21z M312.33,703.3c-1.49-0.02-1.23-1.7-1.59-2.7c0-0.87-0.36-2.11,0.78-2.19
			c1.49-0.1,1.69,1.37,1.86,2.48C313.53,701.85,313.68,703.31,312.33,703.3z M331.39,786.56c-4.12-0.05-8.25-0.14-12.36-0.46
			c-1.55-0.12-3.9-0.66-3.67-2.45c0.26-1.93,2.45-0.62,3.79-0.74c0.44-0.04,0.88,0.05,1.99,0.14c3.14,0.38,6.97-1.4,10.76,0.08
			c1.06,0.42,2.71,0.57,2.64,1.95C334.44,786.93,332.6,786.57,331.39,786.56z M329.35,729.99c2.29,7.1,4.09,14.22,4.16,21.73
			c0.01,0.74-0.17,1.55-1.04,1.75c-1.05,0.24-1.63-0.48-2-1.32c-0.24-0.53-0.47-1.12-0.47-1.69c-0.02-6.34-0.81-12.6-1.99-18.82
			C327.91,731.1,328,730.46,329.35,729.99z M328.36,593.1c-1.58,4.94-3.69,9.7-6.3,14.19c-3.43,5.91-6.97,7.49-13.68,6.3
			c-2.48-0.44-4.96-0.87-7.42-1.41c-1.99-0.43-3.85-1.24-3.53-3.75c0.28-2.21,1.54-3.85,3.82-4.4c0.7-0.17,1.49-0.17,2.2-0.04
			c3.2,0.58,6.26,1.51,9.1-1.4c3.76-3.86,6.36-8.61,6.35-12.82c0.03-2.77-0.98-5.21-2.47-7.48c-3.29-5-5.62-10.37-6.86-16.27
			c-1.67-8-5.11-15.45-7.53-23.22c-0.66-2.1-2.23-4.88,1-6.15c3.08-1.21,5.17,0.86,6.34,3.43c3.45,7.54,6.83,15.12,8.99,23.17
			c0.38,1.43,0.73,2.88,1.23,4.27c0.56,1.54,1.21,3.19,3.23,3.19c1.86,0,2.9-1.35,3.64-2.86c0.72-1.46,1.32-2.98,1.92-4.49
			c2.99-7.58,5.96-15.16,8.95-22.74c1.14-2.87,2.78-4.87,6.37-3.95c3.35,0.86,4.87,2.56,3.54,6.11c-1.25,3.33-2.22,6.77-3.59,10.04
			C338.1,566.08,332.74,579.39,328.36,593.1z M343.2,748.98c-0.39-0.94-0.8-1.97-0.81-2.96c-0.01-1.93-1.04-4.99,1.59-5.19
			c2.1-0.16,0.86,2.9,1.35,4.46c0.31,0.98,0.38,2.03,0.56,3.05c0.03,0.86,0.39,1.97-0.81,2.21
			C344.06,750.74,343.53,749.78,343.2,748.98z M349.35,766.35c-0.04,0.2-0.82,0.49-1.06,0.37c-1.94-1-2.92-2.57-2.73-5.27
			c0.84,0.4,1.19,0.45,1.33,0.65C347.84,763.45,349.74,764.27,349.35,766.35z M346.93,527.02c-1.68-6.06,0.64-11.41,2.62-16.82
			C350.81,516.15,349.41,521.68,346.93,527.02z M373.42,425.91c-1.36-3.57-1.3-7.33-0.7-10.97c1.45-8.77-0.56-17.42-0.55-26.14
			c0-2.3-0.96-4.42-3.49-5.15c-2.48-0.71-4.73-0.03-6.54,1.76c-2.73,2.7-4.07,6.12-4.8,9.83c-1.89,9.61-2.79,19.34-3.52,29.08
			c-0.1,1.33-0.1,2.68-0.4,3.96c-0.46,1.95-1.88,2.98-3.86,3.08c-1.92,0.1-2.98-1.08-3.6-2.74c-0.78-2.11-1.2-4.32-0.9-6.55
			c1.8-13.4,1.63-26.88,1.61-40.35c0-1.84-0.63-4.33,1.54-5.15c2.21-0.84,3.38,1.34,4.42,2.91c1.77,2.67,3.58,2.06,5.48,0.27
			c2.4-2.25,4.99-4.11,8.24-5.05c5.27-1.52,9.97-1.12,13.72,3.37c1.73,2.07,3.95,2.29,6.45,1.95c3.58-0.48,6.74-2.22,10.17-3.12
			c4.64-1.22,6.88-0.1,8.89,4.25c2.24,4.84,2.76,9.95,2.49,15.2c-0.41,7.98-0.82,15.96-1.21,23.94c-0.07,1.47-0.29,3,0.01,4.41
			c0.59,2.79,0.12,4.82-3.06,5.15c-3.19,0.33-5.19-1.22-5.44-4.44c-0.36-4.58-0.27-9.16,0.24-13.75c0.75-6.79,0.75-13.61,0.1-20.4
			c-0.34-3.58-1.01-7.33-5.67-7.85c-4.56-0.51-6.53,2.45-8.04,6.17c-2.88,7.07-3.4,14.44-2.46,21.84c0.63,4.91-0.93,9.38-1.52,14.04
			c-0.25,1.94-1.58,3.18-3.61,3.35C375.32,428.97,374.1,427.7,373.42,425.91z M396.18,398.65c-0.07,0.85-0.48,1.83-1.61,1.73
			c-1.05-0.1-1.32-1.04-1.45-1.93c-0.45-3,0.64-5.71,1.55-9.69C397.12,392.63,396.43,395.68,396.18,398.65z M400.22,759.66
			c3.74,3.04,4.58,7.6,6.01,11.87C402.94,768.23,400.86,764.3,400.22,759.66z M412.41,603.03c-1.64-1.69-1.95-3.22-0.94-4.9
			c0.1-0.16,0.94-0.15,1.07,0.04C413.52,599.59,413.53,601.08,412.41,603.03z M419.54,718.1c-0.82,0.26-1.57-0.31-1.79-0.96
			c-1.92-5.57-3.66-11.2-4.24-17.1c-0.07-0.71,0.23-1.57,1.16-1.6c0.87-0.03,1.23,0.76,1.49,1.45c2.04,5.28,3,10.83,4.12,15.99
			C420.33,716.98,420.42,717.82,419.54,718.1z M426.59,541.14c-2.74,8.85-8.11,16.02-14.09,22.87c-4.77,5.46-9.3,11.12-13.89,16.73
			c-1.03,1.26-2.16,2.71-1.15,4.41c1.03,1.73,2.86,1.17,4.45,1.01c6.06-0.58,12.12-0.86,18.11,0.55c1.68,0.4,3.99,0.67,3.78,2.96
			c-0.2,2.29-2.52,2.1-4.24,2.27c-5,0.5-10,0.93-15.01,1.39c-0.01-0.1-0.02-0.2-0.02-0.29c-6.2,0.38-12.4,0.73-18.59,1.13
			c-2.27,0.15-4.56,0.25-5.98-1.94c-1.47-2.27-0.67-4.56,0.36-6.76c0.98-2.08,2.74-3.45,4.5-4.82
			c11.38-8.81,20.67-19.42,27.72-31.99c3.13-5.59,3.34-11.27,0.71-17.03c-1.75-3.83-4.38-6.79-8.94-7
			c-4.71-0.21-8.78,1.21-11.44,5.42c-1.58,2.5-3.07,5.06-5.22,7.15c-1.97,1.9-4.07,2.34-6.39,0.73c-2.37-1.64-2.08-3.93-0.89-5.92
			c4.37-7.28,8.74-14.85,18.52-15.47c10.85-0.69,20.25,2.17,26.2,12.23C427.4,532.7,427.95,536.74,426.59,541.14z M411.73,574.33
			c-0.99-0.29-1.35-1.19-1.09-2.09c0.55-1.87,0.91-3.93,3.15-4.99c0.92,2.16-0.01,3.96-0.2,5.77
			C413.5,573.97,412.8,574.64,411.73,574.33z M411.98,581.02c-0.91-0.03-1.26-0.64-1.37-1.41c-0.11-0.78,0.08-1.55,0.98-1.66
			c0.89-0.11,1.29,0.56,1.37,1.35C413.03,580.07,412.84,580.75,411.98,581.02z M411.2,540.45c1.44,2.99,1.44,2.99-0.42,5.77
			C410.04,544.14,410.48,542.41,411.2,540.45z M428.11,710.1c-0.06-0.8,0.3-1.41,1.25-1.5c1.38,0.36,1.67,1.5,1.78,2.7
			c0.07,0.78-0.19,1.62-1.15,1.45C428.63,712.51,428.2,711.34,428.11,710.1z M429.29,576.54c0.21-0.61,1.04-0.94,1.38-0.34
			c1.44,2.61,1.79,5.39,1.11,8.24c-0.44,0.03-0.64,0.11-0.71,0.04C428.63,582.26,428.25,579.54,429.29,576.54z M432.81,727.9
			c-0.08,0.24-0.81,0.56-1.04,0.44c-1.62-0.81-1.98-2.44-2.35-4.02c-0.16-0.71-0.28-1.47,0.88-2.43c0.56,0.75,1.09,1.27,1.38,1.89
			C432.28,725.09,433.29,726.32,432.81,727.9z M449.82,773.78c-1.97-0.09-2.74-1.45-2.92-3.19c-0.08-0.8,0.31-1.57,1.22-1.4
			c1.67,0.31,2.87,1.3,3.38,2.91C451.45,773.26,450.81,773.83,449.82,773.78z M443.26,431.15c-2.55,1.63-5.41,2.03-7.98,0.29
			c-4.34-2.94-8.61-6.4-9.55-11.78c-2.04-11.67-2.09-23.51-1.04-35.3c0.26-2.88,0.78-7.04,5.05-6.5c3.91,0.5,3.46,4.52,3.33,7.27
			c-0.46,9.67-0.2,19.18,2.73,28.54c2.39,7.62,6.55,9.31,13.22,5.18c7.73-4.79,9.33-12.55,10.34-20.59
			c0.35-2.77,0.06-5.62,0.06-8.43c0.11,0,0.22,0,0.33,0c0-3.55-0.14-7.1,0.06-10.64c0.11-1.98,1.03-3.89,3.38-4.06
			c2.32-0.16,3.3,1.63,4.03,3.49c1.36,3.48,0.68,7.06,0.27,10.55c-1.33,11.37-0.77,22.76-0.59,34.14c0.02,1.42,0.71,3.23-1.09,3.91
			c-1.72,0.65-3.09-0.51-4.27-1.71c-4.24-4.32-4.2-4.27-9.12-0.64C449.44,427.08,446.37,429.15,443.26,431.15z M454.07,511.63
			c0.04-0.82,0.55-1.45,1.41-1.29c1.42,0.26,1.72,1.43,1.68,2.65c-0.02,0.8-0.46,1.36-1.42,1.34
			C454.53,513.87,454.01,512.89,454.07,511.63z M463.57,656.51c-0.81,0.4-1.42-0.26-1.69-0.93c-1.01-2.5-3.02-4.7-2.41-7.69
			c0.05-0.23,0.85-0.58,1.05-0.46c2.7,1.62,2.51,4.7,3.55,7.17c0.05,0.13,0.05,0.28,0.14,0.77
			C464.08,655.61,463.95,656.32,463.57,656.51z M469.41,775.99c-1.57-0.29-2.66-1.23-2.94-2.84c-0.18-1.06,0.41-1.63,1.62-1.6
			c1.47,0.6,2.8,1.49,2.86,3.35C470.99,775.77,470.21,776.14,469.41,775.99z M473.69,767.51c-1.35-0.42-2.34-1.33-2.57-2.76
			c-0.15-0.92,0.53-1.4,1.39-1.13c1.4,0.44,2.07,1.56,2.34,2.88C474.78,767.3,474.36,767.72,473.69,767.51z M502.06,606.24
			c-0.04,0.25-0.74,0.67-0.96,0.58c-2.02-0.81-2.17-2.94-3-4.57c-0.38-0.75-0.76-1.62,0.13-2.62c1.27,0.22,1.66,1.07,2.03,1.83
			C501,603,502.38,604.33,502.06,606.24z M511.59,568.4c-2.01,18.2-20.46,30.76-36.78,25.83c-11.54-3.49-18.83-14.17-18.82-28.73
			c0.89-9.74,0.8-20.73,4.15-31.33c2.02-6.39,5.62-11.32,11.6-14.46c2.23-1.17,4.47-2.32,6.6-3.66c3.15-1.98,6.23-2.51,9.55-0.37
			c0.96,0.62,2.19,1.12,3.31,1.15c10.27,0.32,15.13,6.38,18.13,15.55C513.23,544.29,512.92,556.39,511.59,568.4z M501.61,488.7
			c1.24-0.65,1.9,0.49,2.38,1.35c1.69,3.07,3.01,6.27,3.52,11.08c-3.55-3.32-5.07-6.45-6.4-9.67
			C500.72,490.52,500.5,489.28,501.61,488.7z M516.57,421.72c-0.16-5.18-0.14-10.36-0.17-15.55c-0.03-5.85-1.11-11.51-3.29-16.91
			c-2.44-6.03-6.88-7.21-12.48-3.93c-5.8,3.4-9.04,7.86-9.28,14.96c-0.24,7.07-1.69,14.1-2.73,21.12c-0.33,2.23-1.1,4.69-3.88,4.66
			c-3.07-0.02-3.7-2.67-3.89-5.07c-0.22-2.79-0.05-5.62-0.05-8.43c0.39-10.94,2.45-21.77,2.04-32.76c-0.1-2.6,0.88-5.05,3.73-5.97
			c2.66-0.86,3.93,0.55,5.09,2.89c1.07,2.19,2.56,0.37,3.6-0.44c3.85-3.01,8.24-4.64,13.02-5.29c10.38-1.41,17.94,4.76,17.87,15.2
			c-0.06,9.34,1.02,18.62,1,27.95c-0.01,2.82-0.21,5.62-0.95,8.36c-0.8,2.97-2.74,4.64-5.81,4.37
			C517.37,426.64,516.65,424.2,516.57,421.72z M518.1,544.98c2.92,0.54,3.49,2.19,4.14,3.61c2.1,4.55,4.09,9.15,6.09,13.74
			c0.4,0.91,1.13,2.06-0.13,2.72c-1.17,0.61-1.94-0.44-2.42-1.34C522.67,557.89,520.49,551.72,518.1,544.98z M528.44,776.87
			c-1.77-0.54-3.15-1.64-3.49-3.58c-0.16-0.88,0.5-1.51,1.36-1.2c1.82,0.64,3.4,1.65,4.11,3.5
			C530.2,776.88,529.36,777.15,528.44,776.87z M540.71,780c-1.73-0.36-3.6-0.75-3.87-2.94c-0.11-0.87,0.72-1.15,1.69-1.09
			c1.48,0.62,3.43,1.04,4,2.89C542.87,780.02,541.56,780.18,540.71,780z M561.91,762.66c-1.63-0.25-2.62-1.35-2.85-2.97
			c-0.15-1.06,0.52-1.59,1.45-1.73c1.76,0.37,2.66,1.45,2.89,3.06C563.55,762.05,563.01,762.83,561.91,762.66z M573.16,778.29
			c-1.2,0.11-2.56,0.08-2.87-1.37c-0.24-1.12,0.81-1.45,1.75-1.46c1.07-0.02,2.06,0.24,2.48,1.39
			C574.56,777.82,573.94,778.22,573.16,778.29z M576.19,652.07c-2.96-2.07-3.09-4.74-2.85-7.57
			C575.03,646.57,576.98,648.56,576.19,652.07z M581.51,541.14c-2.73,8.85-8.11,16.02-14.09,22.87c-4.77,5.46-9.3,11.12-13.89,16.73
			c-1.03,1.26-2.16,2.71-1.15,4.41c1.03,1.73,2.86,1.17,4.45,1.01c6.06-0.58,12.12-0.86,18.11,0.55c1.68,0.4,3.99,0.67,3.78,2.96
			c-0.2,2.29-2.52,2.1-4.24,2.27c-5,0.5-10,0.93-15.01,1.39c-0.01-0.1-0.02-0.2-0.02-0.29c-6.2,0.38-12.4,0.73-18.59,1.13
			c-2.27,0.15-4.56,0.25-5.98-1.94c-1.47-2.27-0.67-4.56,0.36-6.76c0.98-2.08,2.74-3.45,4.5-4.82
			c11.38-8.81,20.67-19.42,27.72-31.99c3.13-5.59,3.34-11.27,0.71-17.03c-1.75-3.83-4.38-6.79-8.94-7
			c-4.71-0.21-8.78,1.21-11.44,5.42c-1.58,2.5-3.07,5.06-5.22,7.15c-1.97,1.9-4.07,2.34-6.39,0.73c-2.37-1.64-2.08-3.93-0.89-5.92
			c0.12-0.19,0.23-0.39,0.35-0.58c-2.52-5.09-4.99-10.2-7.43-15.33c-0.32-0.68-0.24-1.51,0.5-1.96c0.73-0.45,1.53-0.18,1.99,0.41
			c0.9,1.15,1.78,2.35,2.43,3.65c1.56,3.11,2.83,6.37,5.06,9.12c3.62-5.53,7.96-10.29,15.62-10.77c10.85-0.69,20.25,2.17,26.2,12.23
			C582.32,532.7,582.87,536.74,581.51,541.14z M573.97,497.09c3.05,2.14,3.3,4.97,3.71,7.76
			C575.12,503.17,574.15,500.68,573.97,497.09z M598.03,682.69c-1.45-0.17-2.3-1.11-2.46-2.54c-0.08-0.65,0.4-1.01,1.14-1
			c1.18,0.32,1.83,1.23,2.16,2.38C599.04,682.17,598.72,682.77,598.03,682.69z M595.64,445.55c2.12,0.71,2.6,2.04,2.83,4.67
			C596.05,448.76,595.29,447.61,595.64,445.55z M581.39,419.72c0.04-4.74,0.01-9.47,0.01-14.21c0.09-5.47-0.66-10.98,0.34-16.4
			c0.61-3.32-0.82-4.33-3.73-4.34c-3.27-0.02-6.39-0.14-6.4-4.72c-0.01-4.3,1.8-6.69,6.28-6.81c3.22-0.09,4.39-2.07,4.2-5.03
			c-0.16-2.51-0.53-5-0.68-7.51c-0.14-2.22-0.18-4.49,0.96-6.5c1.08-1.9,2.7-3.44,4.98-3.02c2.32,0.44,1.97,2.7,1.96,4.4
			c-0.01,2.95-0.11,5.92-0.42,8.86c-0.76,7.14,0.09,8.23,7.33,8.87c5.85,0.52,7.6,2.38,7.32,7.65c-0.18,3.48-1.7,4.69-5.21,3.85
			c-5.74-1.38-6.8-0.67-7.81,4.98c-1.21,6.71-1.92,13.5-1.9,20.3c0.02,7.94,2.58,10.48,10.46,11.24c2.1,0.2,4.11,0.56,5.72,2.08
			c3.16,2.98,2.49,7.21-1.4,9.09C596.33,435.91,581.31,430.48,581.39,419.72z M601.65,452.81c0.12,0.2,0.44,0.88,0.86,1.49
			c2.66,3.86,5.37,7.69,7.99,11.58c0.53,0.78,1.44,1.81,0.21,2.66c-0.84,0.58-1.77-0.01-2.36-0.65c-3.47-3.81-6.52-7.93-8.51-12.72
			C599.47,454.28,599.17,453.07,601.65,452.81z M602.15,615.13c-1.24-0.25-2.1-1.03-2.25-2.33c-0.12-1.03,0.47-1.6,1.39-1.78
			c1.54,0.48,2.2,1.57,2.3,2.96C603.65,614.85,602.99,615.3,602.15,615.13z M604.51,777.1c2.78-0.67,4.64-0.39,6.44,1.04
			C607.94,779.74,607.94,779.74,604.51,777.1z M613.53,713.02c-0.13-0.68,0.65-0.86,1.44-0.81c1.55,0.56,3.3,1.13,3.69,3.18
			c0.13,0.71-0.63,1.04-1.23,0.79C615.84,715.5,613.91,715.09,613.53,713.02z M617.86,778.65c-0.17-0.11-0.15-0.95,0.04-1.09
			c1.48-1.03,2.96-0.68,5.16,0.28C621.02,779.71,619.47,779.73,617.86,778.65z M635.42,706.85c-0.27,0.86-1.21,0.73-1.89,0.42
			c-4.25-1.95-7.84-4.69-10.1-8.9c-0.55-1.02-0.38-1.98,0.78-2.43c0.43,0.09,0.85,0.06,0.97,0.23c2.58,3.69,7.11,5.17,9.85,8.65
			C635.42,705.31,635.61,706.26,635.42,706.85z M629.02,678.57c2.66,0.76,4.08,2.1,5.27,5.3
			C631.19,682.57,629.5,681.49,629.02,678.57z M623.72,654.76c-0.59-0.65-0.83-1.69,0.07-2.39c0.82-0.65,1.86-0.39,2.43,0.27
			c3.98,4.71,8.97,8.39,12.95,13.22C633.06,663.46,628.05,659.56,623.72,654.76z M642.74,691.13c-1.7-0.17-2.76-1.22-3.52-3
			c2.18-0.6,3.35,0.27,4.17,1.75C643.7,690.44,643.43,691.2,642.74,691.13z M649.03,686.79c4.75,1.84,8.72,4.78,12.11,8.56
			C656.28,693.68,652.13,691,649.03,686.79z M663.51,568.4c-2.01,18.2-20.46,30.76-36.78,25.83c-11.54-3.49-18.83-14.17-18.82-28.73
			c0.89-9.74,0.8-20.73,4.15-31.33c2.02-6.39,5.62-11.32,11.6-14.46c2.23-1.17,4.47-2.32,6.6-3.66c3.15-1.98,6.23-2.51,9.55-0.37
			c0.96,0.62,2.19,1.12,3.31,1.15c10.27,0.32,15.13,6.38,18.13,15.55C665.15,544.29,664.84,556.39,663.51,568.4z M665.51,380.79
			c-3.36,13.93-5.29,28.25-11.3,41.44c-1.48,3.25-2.68,6.58-3.6,10.01c-1.15,4.31-2.89,8.37-4.91,12.35
			c-2.87,5.64-7.25,8.42-13.65,7.99c-3.24-0.35-6.47-0.67-9.7-1.06c-1.17-0.14-2.56-0.3-2.58-1.87c-0.02-1.42,1.23-1.88,2.36-2.29
			c0.28-0.1,0.57-0.15,0.86-0.23c10.8-3.1,15.26-8.38,16.38-19.34c0.2-2-0.54-3.77-1.19-5.58c-4.85-13.51-9.73-27.01-14.49-40.55
			c-0.73-2.07-2.47-4.91,0.62-6.23c3.14-1.34,5.57,0.86,6.71,3.58c2.34,5.59,4.22,11.37,6.35,17.05c1.4,3.74,2.88,7.45,4.38,11.15
			c0.44,1.09,1.04,2.31,2.45,2.26c1.53-0.05,1.68-1.46,1.97-2.59c2.34-9.07,6.69-17.39,9.78-26.18c0.48-1.37,1.27-2.69,2.14-3.87
			c1.23-1.68,2.94-2.54,5.04-1.71c1.92,0.76,2.43,2.45,2.45,4.34C665.6,379.91,665.62,380.37,665.51,380.79z M666.06,213.15
			c-2.12,14.11-2.38,28.21-1.34,42.47c0.61,8.35-0.33,16.84-0.89,25.24c-0.5,7.42-4.66,11.48-12.04,11.51
			c-10.16,0.03-19.38-2.45-25.46-11.57c-0.69-1.04-1.93-2.26-0.65-3.54c1.1-1.1,2.59-0.58,3.72,0.1c2.4,1.45,4.65,3.14,7.04,4.63
			c6.08,3.79,11.23,4.19,14.85,1.26c4.21-3.4,6.28-11.58,4.4-17.13c-0.64-1.9-1.66-2.33-3.3-1.15c-0.36,0.26-0.71,0.53-1.05,0.82
			c-12.26,10.86-30.22-0.63-31.26-12.67c-0.32-3.7-0.5-7.37-0.56-12.59c-0.11-3.08,0.2-7.62,1.21-12.15
			c2.05-9.23,8.35-14.87,16.3-18.7c4.99-2.41,9.78,1,14.52,2.34c2.71,0.77,4.89,2.73,6.34-1.76c0.73-2.26,3.67-2.24,5.9-1.72
			C666.22,209.12,666.37,211.11,666.06,213.15z M667.07,387.7c-0.08-1.16-0.07-2.66,1.27-3.01c1.53-0.4,1.95,1.17,2.28,2.21
			c1.66,5.34,3.55,10.65,4.65,16.12c0.59,2.95,2.03,5.74,2.18,9.52c-2.84-1.74-3.38-3.97-4.14-5.99
			c-1.91-5.11-3.72-10.26-5.51-15.41C667.42,390.04,667.15,388.86,667.07,387.7z M689.3,555c-1.06,0.89-2,0.06-2.6-0.8
			c-5.07-7.21-8.75-15.19-13.59-23.28c2.76-0.08,3.37,1.03,3.99,1.99c4.03,6.3,8.73,12.17,12.13,18.88
			C689.77,552.87,690.45,554.03,689.3,555z M748.57,258.45c-0.59,2.14,0.83,5.81-2.06,5.91c-2.29,0.08-1.25-3.67-1.71-5.65
			c-0.56-2.37,0.13-6.59,1.76-6.46C749.66,252.49,747.87,256.27,748.57,258.45z M748.6,522.06c-0.07,1.12-0.22,2.41-1.55,2.13
			c-1.83-0.39-2.11-2.21-2.37-3.75c-0.18-1.06,0.2-2.3,1.52-2.04C748.04,518.77,748.23,520.59,748.6,522.06z M748.17,241.98
			c0.11,1.91,0.11,4.9-2.45,4.81c-3.08-0.11-0.95-3.41-1.96-5.02c0.11-1.63-1.02-4.2,1.33-4.36
			C747.5,237.23,748.06,240.01,748.17,241.98z M744.27,222.13c2.41-0.15,2.18,2.2,2.1,3.93c0,1.74,0.02,3.48-0.01,5.23
			c-0.02,1.27,0.36,3.06-1.47,3.08c-1.73,0.02-1.58-1.81-1.72-3.06c-0.19-1.74-0.27-3.5-0.33-5.25
			C742.8,224.54,742.02,222.28,744.27,222.13z M744.56,118.65c1.13-0.33,1.57,0.54,1.74,1.46c0.17,0.91,0.09,1.8-0.99,2.19
			c-1.17-0.04-1.42-0.92-1.56-1.82C743.62,119.72,743.74,118.88,744.56,118.65z M746.57,110.41c0.17,1.3-0.33,2.63-1.81,2.44
			c-2.52-0.32-2.4-2.63-2.7-4.46c-0.18-1.06-0.05-2.09,1.3-2.37C745.55,106.72,746.31,108.43,746.57,110.41z M734.93,99.53
			c2.31,0.51,3.14,2.41,3.23,4.57c0.05,1.16-0.7,1.86-2.09,1.77c-1.96-0.71-2.58-2.46-2.8-4.39
			C733.13,100.34,733.68,99.25,734.93,99.53z M735.84,313.08c1.23,0.06,1.73,0.72,1.81,1.66c0.08,0.99-0.37,1.71-1.46,1.67
			c-0.82-0.03-1.27-0.64-1.41-1.41C734.62,314.02,735.06,313.38,735.84,313.08z M734.28,247.25c-0.2-0.87-0.43-2.6,1-2.28
			c2,0.44,1.92,2.64,2.3,4.23c-0.08,1.06,0.12,2.77-1,2.6C734.12,251.44,734.66,248.95,734.28,247.25z M733.55,123.25
			c1.55,0.48,1.53,1.76,1.68,2.84c0.13,0.95,0.35,2.36-1.04,2.37c-1.5,0.01-1.49-1.51-1.59-2.63
			C732.5,124.85,732.54,123.82,733.55,123.25z M731.9,187.28c-1.58-0.44-2.96-1.34-3.15-3.18c-0.1-0.99,0.49-1.62,1.65-1.69
			c1.64,0.46,2.58,1.68,2.93,3.34C733.54,186.77,733,187.59,731.9,187.28z M732.46,232.05c-1.24,0.52-1.41-0.7-1.54-1.52
			c-0.14-0.85-0.19-1.78,0.81-2.28c0.97-0.01,1.21,0.7,1.34,1.42C733.22,230.54,733.38,231.66,732.46,232.05z M732.24,173.55
			c-0.28,1.48-0.72,3.16-2.64,2.88c-1.55-0.23-1.34-1.78-1.09-2.92c0.76-3.54-3.05-6.51-0.88-10.98
			C730.24,166.21,733.08,169.1,732.24,173.55z M727.08,351.56c-0.28,1.38,0.17,3.44-1.77,3.5c-1.88,0.05-1.88-1.94-1.92-3.35
			c-0.04-1.47,0.27-3.41,1.9-3.49C727.38,348.11,726.77,350.26,727.08,351.56z M723.13,53.89c0.24-1.23,1.38-1.39,2.43-1.39
			c0.98,0,1.68,0.44,1.61,1.59c-0.38,1.18-1.29,1.52-2.4,1.39C723.86,55.38,722.91,55,723.13,53.89z M723.7,334.33
			c1.56,0.16,1.92,1.61,2.03,2.94c0.08,1.09-0.33,2.18-1.6,2.14c-1.79-0.06-1.76-1.58-1.91-2.7
			C722.42,335.57,722.28,334.18,723.7,334.33z M723.14,431.07c1.34-0.03,2.08,0.4,2.04,1.49c-0.05,1.44-1.06,2.05-2.36,2.1
			c-1.05,0.05-2.36-0.14-2.32-1.44C720.55,431.55,722.31,431.6,723.14,431.07z M719.14,239.54c-0.01,0.91-0.07,1.93-1.18,2.01
			c-1.32,0.1-1.65-1-1.76-2.05c-0.1-0.91,0.11-1.89,1.18-1.99C718.73,237.38,718.96,238.51,719.14,239.54z M717.9,734.19
			c-0.01,1.1-1.02,1.27-1.68,1.41c-1.35-0.12-2.34-0.48-2.43-1.75c-0.08-1.07,0.7-1.61,1.69-1.61
			C716.75,732.25,717.91,732.68,717.9,734.19z M713.55,224.46c3.04,0.62,2.83,3.7,3.46,5.86c-0.03,1.58-0.23,3.39-1.86,3.11
			c-3.28-0.57-2.81-3.67-3.16-6.03C711.8,226.15,711.76,224.09,713.55,224.46z M715.11,411.02c-0.03,0.74-0.09,1.72-0.93,1.7
			c-1.59-0.03-1.49-1.5-1.63-2.59c-0.09-0.73,0.11-1.63,1.06-1.47C714.83,408.87,714.95,410.02,715.11,411.02z M711.66,397.01
			c2.22,0.2,2.2,2.48,2.35,4.2c0.11,1.29-0.49,2.47-2.04,2.27c-1.91-0.25-2.09-1.8-2.08-3.41C710.2,398.88,710,396.87,711.66,397.01
			z M710.17,326.39c-0.19,1.3,0.42,3.54-1.34,3.69c-2.21,0.19-1.95-2.22-2.06-3.71c-0.19-2.67-0.71-5.26-1.36-7.84
			c-0.25-0.98-0.43-2.26,0.86-2.64c1.3-0.39,1.79,0.77,2.12,1.75C709.35,320.44,710.03,323.32,710.17,326.39z M704.29,169.69
			c0.14-0.74,0.58-1.5,1.46-1.26c0.44,0.12,0.98,0.77,1.05,1.24c0.5,3.33,0.94,6.68,1.3,10.03c0.09,0.88-0.2,1.89-1.23,2.07
			c-1.1,0.19-1.55-0.77-1.73-1.62c-0.49-2.44-0.87-4.9-1.23-6.99C704.05,171.72,704.09,170.69,704.29,169.69z M703.68,369.32
			c1.03-0.4,1.76,0.37,2.03,1.23c1.51,4.77,3.88,9.27,4.63,13.72c-0.12,1.59,0.15,2.89-1.21,3.12c-1.27,0.22-1.83-0.98-2.11-1.92
			c-1.32-4.53-2.43-9.11-4.25-13.48C702.4,371.07,702.45,369.8,703.68,369.32z M710.57,665.68c-3.14-5.21-9.23-8.77-8.97-15.89
			c0.07-2.09-2.22-3.49-1.67-6.46c3.71,3.44,6.69,7.1,7.97,11.27c1.08,3.51,2.87,5.97,5.31,8.33c0.92,0.89,2.29,1.96,0.89,3.32
			C712.91,667.39,711.21,666.74,710.57,665.68z M711.26,746.66c2.48-0.02,3.67,0.98,4.39,3.34
			C713.21,749.9,711.9,749.06,711.26,746.66z M718.74,768.05c-1.73-0.52-4.18-0.45-4.33-2.88c-0.08-1.2,1.56-0.92,2.7-0.84
			c1.6,0.66,4.02,0.77,4.17,3.08C721.36,768.75,719.64,768.32,718.74,768.05z M722.17,512.56c-0.15-0.71-0.04-1.64,0.92-1.69
			c0.42-0.02,1.07,0.55,1.27,1.01c0.9,2.02,1.77,4.07,2.47,6.16c1.53,4.62,2.97,9.27,4.4,13.92c0.33,1.08,0.98,2.22-0.57,4.13
			C726.64,528.29,723.87,520.62,722.17,512.56z M738.34,555.8c-1.31,0.64-1.77-0.8-2.13-1.67c-1.58-3.82-3.12-7.66-4.54-11.54
			c-0.46-1.26-0.58-2.69,1.23-3.11c1.17,0.15,1.5,0.96,1.72,1.85c1.01,4,1.95,8,3.88,11.7C738.98,553.92,739.52,555.23,738.34,555.8
			z M740.79,55.03c1.76-0.02,1.89,1.6,2.56,2.67c0.46,0.73,0.94,1.44,1.55,2.38c-1.7,0.84-2.52,0.13-3.27-0.57
			c-0.96-0.9-2-1.83-1.95-3.33C739.71,55.54,740.14,55.04,740.79,55.03z M740.53,593.56c-0.08-1.17-0.26-2.35-0.17-3.51
			c0.08-1.06,0.59-2.05,1.78-2.26c1.21-0.22,1.92,0.62,2.45,1.54c1.4,2.43,1.12,5.14,1.23,8.68c-1.43,5.57,0.06,12.04-0.07,18.51
			c-0.04,1.73,0.52,4.54-2.28,4.32c-2.19-0.17-1.86-2.65-1.72-4.4C742.36,608.77,741.07,601.18,740.53,593.56z M742.02,636.7
			c0.28-2.1-0.97-4.9,1.58-5.2c2.77-0.33,2.73,2.7,2.83,4.59c0.13,2.5,0.79,6.59-2.27,6.63
			C741.26,642.77,742.91,638.57,742.02,636.7z M743.06,658.9c-0.13-2.78-0.42-5.56-0.46-8.34c-0.02-0.99,0.39-2.21,1.73-2.15
			c1.05,0.05,1.26,1.1,1.45,1.96c1.54,6.88,1.62,13.71-0.96,21.68C742.76,667.08,743.24,662.95,743.06,658.9z M749.76,774.45
			c-2.01-0.28-4.19-0.55-4.8-2.96c-0.26-1.05,0.66-1.49,1.88-1.41c1.59,0.77,4.01,0.72,4.68,3.04
			C751.82,774.14,750.66,774.57,749.76,774.45z M754.83,615.98c-0.17,0.22-0.9,0.28-1.19,0.11c-1.87-1.1-1.6-2.97-1.52-4.72
			c0.03-0.54,0.33-1.07,0.57-1.79c1.39,0.38,1.66,1.11,1.78,1.82C754.73,612.92,756.05,614.39,754.83,615.98z M755.27,607.38
			c-1.74-0.19-3.43-1.32-3.42-3.41c0-1.64,1.21-2.81,2.8-2.88c2.24-0.1,2.36,1.73,2.51,3.37
			C756.93,605.73,757.05,607.57,755.27,607.38z M758.1,134.89c0.03-0.86,0.58-1.4,1.46-1.3c1.03,0.12,1.56,0.83,1.53,1.84
			c-0.02,0.87-0.58,1.31-1.45,1.32C758.62,136.55,758.06,135.91,758.1,134.89z M761.2,730.51c-0.27,0.57-0.98,1.12-1.6,1.31
			c-0.62,0.18-1.09-0.54-1.04-1.12c0.35-3.66-0.06-7.49,2.13-11.83C762.75,723.34,762.86,726.91,761.2,730.51z M773.86,390.23
			c1.57,0.14,1.18,2.05,1.51,3.24c-0.13,1.12,0.16,2.85-1.39,2.7c-1.66-0.15-1.27-2.04-1.36-3.25
			C772.54,391.86,772.28,390.08,773.86,390.23z M764.62,242.43c3.36,0.87,2.25,4.2,2.8,6.57c0.25,1.1-0.04,3.07-1.25,2.75
			c-3.38-0.88-1.99-4.29-2.84-6.32C763.37,244.03,763.36,242.1,764.62,242.43z M765.54,689.96c-1.94-0.18-1.63-2.09-1.91-3.46
			c0.19-1.12-0.15-3.04,1.26-2.87c1.98,0.23,1.64,2.47,1.87,3.98C766.91,688.59,766.87,690.08,765.54,689.96z M765.44,267.96
			c-0.05-1.1-0.42-2.41,1-3.11c1.57,0.46,1.84,1.81,2.03,3.1c0.17,1.16,0.23,2.67-1.39,2.69
			C765.55,270.65,765.5,269.1,765.44,267.96z M770.37,365.44c-0.11,1.03-0.63,2.12-1.95,1.91c-1.06-0.17-1.15-1.24-1.2-2.11
			c-0.19-3.15,1.18-5.87,2.4-9.78C771.17,359.47,770.7,362.48,770.37,365.44z M772.02,747.8c-1.21-0.16-1.17-1.5-1.18-2.5
			c-0.01-1,0.03-2.32,1.28-2.4c1.6-0.11,1.55,1.35,1.7,2.5C773.56,746.47,773.64,748.01,772.02,747.8z M776.05,778.4
			c-0.13,1.03-0.89,1.44-1.88,1.29c-0.79-0.12-1.35-0.63-1.35-1.45c0-1.07,0.73-1.48,1.71-1.55
			C775.53,776.83,776.18,777.36,776.05,778.4z M780.85,560.63c1.82,3.19,1.65,6.59,1.96,9.91c0.09,0.99-0.12,2.27-1.48,2.29
			c-1.34,0.02-1.5-1.25-1.64-2.25C779.23,567.2,780.15,563.94,780.85,560.63z M783.42,585.25c-2.47-2.6-2.81-4.64-3.22-6.62
			c-0.18-0.87-0.17-1.93,0.92-2.17c1.09-0.24,1.57,0.72,1.68,1.59C783.05,580.04,783.16,582.05,783.42,585.25z M777.18,473.49
			c1.67,2.38,1.65,4.64,0.69,7.95C775.95,476.86,775.95,476.86,777.18,473.49z M782.84,639.03c-1.41,4-2.94,7.95-4.21,12.13
			c-1.54-6.31-0.33-12.48,0.81-18.64c0.16-0.88,0.54-1.79,1.6-1.85c1.23-0.07,1.84,0.88,2.19,1.86
			C784.02,634.73,783.56,636.98,782.84,639.03z"/>
		<path d="M648.82,534.33c-0.56-5.94-3.77-8.99-9.15-10.53c-6.36-1.81-14.89,1.59-18.28,7.81c-8.82,16.2-6.62,32.68-0.27,48.89
			c2.28,5.82,8.08,7.65,14.01,7.66c5.67,0.01,9.72-2.75,12.23-8.02c3.14-6.59,4.62-13.41,4.02-20.35
			C651.92,550.95,649.62,542.72,648.82,534.33z"/>
	</g>
</g>
</svg>
