<?xml version="1.0" encoding="UTF-8" standalone="no"?>
<svg
   width="21"
   height="20"
   viewBox="0 0 21 20"
   fill="none"
   version="1.1"
   id="svg4"
   sodipodi:docname="twitter.svg"
   xmlns:inkscape="http://www.inkscape.org/namespaces/inkscape"
   xmlns:sodipodi="http://sodipodi.sourceforge.net/DTD/sodipodi-0.dtd"
   xmlns="http://www.w3.org/2000/svg"
   xmlns:svg="http://www.w3.org/2000/svg">
  <defs
     id="defs8" />
  <sodipodi:namedview
     id="namedview6"
     pagecolor="#ffffff"
     bordercolor="#000000"
     borderopacity="0.25"
     inkscape:showpageshadow="2"
     inkscape:pageopacity="0.0"
     inkscape:pagecheckerboard="0"
     inkscape:deskcolor="#d1d1d1"
     showgrid="false" />
  <path
     d="M 20.1753,0.394423 C 19.842,-0.00424693 19.2753,-0.103914 18.842,0.195088 L 16.9086,1.52399 c -0.9,-0.963454 -2.1666,-1.4950144 -3.5333,-1.4950144 -2.7,0 -4.93332,2.1926844 -4.93332,4.9169344 0,0.39867 0.03334,0.76411 0.13334,1.12956 C 6.24198,5.57713 4.84198,3.88279 4.30865,0.826316 4.24198,0.427646 3.94198,0.128643 3.54198,0.0289756 c -0.36666,-0.0996676 -0.76666,0.066445 -1,0.3654474 -0.06666,0.066445 -5.56666,7.707627 2.4,14.185977 -0.76666,1.6279 -3.06666,3.0233 -3.966665,3.4884 -0.433333,0.1993 -0.633333,0.6644 -0.533333,1.1296 0.1,0.4651 0.5,0.7641 0.966668,0.7641 h 1.73333 c 10.13332,0 14.73332,-5.0166 14.83332,-16.24583 l 2.1,-1.99335 c 0.4,-0.33222 0.4333,-0.930227 0.1,-1.328897 z"
     fill="#505f79"
     id="path2" />
  <path
     style="fill:#ffffff;stroke-width:0.02457"
     d="M 1.2828878,19.93685 C 0.62185799,19.850986 0.24996608,19.162602 0.52886555,18.541131 0.61807916,18.342336 0.78695929,18.187136 1.0933661,18.022356 1.683764,17.704851 2.3098632,17.302811 2.8690779,16.882109 3.8073983,16.176203 4.4912926,15.449616 4.8509219,14.776546 L 4.9582093,14.57575 4.7948295,14.438933 C 2.8367317,12.799193 1.5715142,10.977778 0.99479002,8.9683713 0.36653436,6.7794204 0.58756361,4.3998133 1.6371421,2.0527905 1.9455989,1.3630326 2.375712,0.60859654 2.6119396,0.3429557 2.7674853,0.16804262 3.0253857,0.03685046 3.2489688,0.01890336 3.6359201,-0.01215739 4.0556216,0.23386526 4.213544,0.58432273 4.2453189,0.65483713 4.3005344,0.86179361 4.336245,1.044226 4.8208658,3.519984 5.8721998,5.0562511 7.5736587,5.7749135 7.8236622,5.8805101 8.3036496,6.0356558 8.486416,6.069943 L 8.58167,6.087813 8.563328,5.992309 C 8.4920418,5.6211356 8.4756784,5.4850472 8.4617381,5.1474201 8.367526,2.8656509 9.8957285,0.79946545 12.113022,0.21075128 c 1.637011,-0.43464313 3.40973,1.8378e-4 4.573172,1.12174472 0.144298,0.1391043 0.225953,0.2013257 0.247398,0.1885198 0.0176,-0.010513 0.472391,-0.3218809 1.010634,-0.69192848 0.538244,-0.37004759 1.030259,-0.69612624 1.093366,-0.72461922 0.09009,-0.04067327 0.164899,-0.05201613 0.348157,-0.05278602 0.32747,-0.0013757 0.470102,0.05749113 0.702577,0.28996694 0.223589,0.2235883 0.288211,0.3744429 0.290439,0.67800698 0.0014,0.1845363 -0.0073,0.2274344 -0.07457,0.3685504 -0.08878,0.1863067 -0.0084,0.1041873 -1.317706,1.3467961 l -1.025798,0.9735722 -1.72e-4,0.2710196 c -3.92e-4,0.6586428 -0.07881,2.0625293 -0.160607,2.8754426 -0.596937,5.9324391 -2.793,9.6888921 -6.780253,11.5978881 -1.6265803,0.778766 -3.5616476,1.248169 -5.8722359,1.42447 -0.9154471,0.06985 -3.4806819,0.109316 -3.8645323,0.05945 z"
     id="path185" />
  <path
     style="fill:#ffffff;stroke-width:0.02457"
     d="M 1.1916462,19.906269 C 0.69457342,19.778317 0.37058596,19.287591 0.46530846,18.806126 0.53939876,18.429532 0.6831055,18.272237 1.2419671,17.95603 2.777933,17.08697 3.9711459,16.10492 4.6246369,15.17199 4.7354671,15.013768 4.963145,14.617553 4.963145,14.582904 c 0,-0.0099 -0.1519593,-0.149523 -0.3376873,-0.310278 C 2.3331783,12.288564 1.0664658,10.115566 0.72401912,7.5798526 0.66923074,7.1741614 0.64974833,6.2199909 0.68657332,5.7459091 0.79064619,4.4060838 1.1628597,3.0661391 1.7914055,1.7685829 2.135019,1.0592351 2.5069033,0.44697892 2.693844,0.28284285 2.7404268,0.24194259 2.8471646,0.17269585 2.9310391,0.12896119 3.0716334,0.0556511 3.1017595,0.04943177 3.3169533,0.04929184 c 0.2112614,-1.3735e-4 0.2489919,0.0072278 0.3975334,0.07760057 0.090265,0.0427638 0.2146514,0.12433234 0.2764145,0.18126344 0.170989,0.15761223 0.2452728,0.33729602 0.3601678,0.87120535 0.2211951,1.0278779 0.5048364,1.8264081 0.8830069,2.485914 0.6446573,1.1242422 1.4955332,1.8405034 2.665187,2.2435356 0.2622794,0.090374 0.6771074,0.204598 0.6900902,0.1900172 0.00267,-0.003 -0.016492,-0.1215553 -0.042594,-0.2634472 C 8.4842882,5.4957749 8.4593275,4.7481415 8.4994771,4.4191624 8.8044462,1.9202956 10.890869,0.06142506 13.390663,0.06142506 c 1.242053,0 2.364437,0.43636128 3.279448,1.27498664 0.128968,0.1182019 0.236046,0.1978089 0.257985,0.1917984 0.02063,-0.00565 0.291806,-0.184988 0.602617,-0.3985256 1.011174,-0.69471153 1.508284,-1.0164735 1.615311,-1.04553424 0.161884,-0.04395609 0.506046,-0.01634504 0.647042,0.05191022 0.155951,0.0754945 0.40556,0.32446534 0.487372,0.48612581 0.09847,0.19458061 0.11529,0.48823861 0.03956,0.69074221 -0.03061,0.081837 -0.100622,0.1998891 -0.155592,0.2623393 -0.05497,0.06245 -0.537362,0.5284763 -1.07198,1.0356135 -0.534617,0.5071371 -1.007996,0.9566076 -1.051953,0.9988231 l -0.07992,0.076755 -0.02485,0.7489079 c -0.07893,2.3781059 -0.300679,4.120401 -0.748897,5.8840427 -0.601776,2.367861 -1.540945,4.214403 -2.914106,5.729553 -1.304773,1.43969 -3.137849,2.533564 -5.2855048,3.154083 -1.2441978,0.359485 -2.7139909,0.597424 -4.2451735,0.687235 -0.7255098,0.04256 -3.4003668,0.0546 -3.5503685,0.01599 z"
     id="path191" />
  <path
     style="fill:#ffffff;stroke-width:0.02457"
     d="M 1.1916462,19.905703 C 0.68705501,19.773493 0.36613677,19.281108 0.46721634,18.79421 0.53685038,18.458785 0.69625391,18.265001 1.0810811,18.047948 2.7832364,17.087886 4.0295904,16.066051 4.6596108,15.114057 4.7704344,14.946597 4.9621386,14.608503 4.9627993,14.579346 4.9629958,14.570959 4.8221744,14.444184 4.6498771,14.297623 4.2187287,13.930875 3.3353251,13.041159 3.0093622,12.645385 0.94042749,10.13335 0.24075463,7.3704039 0.89907283,4.3120393 1.141156,3.1873877 1.6721445,1.8565792 2.2782944,0.85531708 2.5856273,0.34765258 2.7624725,0.17237804 3.0682715,0.07235628 c 0.2850312,-0.09322902 0.67334,0.0060123 0.9226297,0.23579957 0.171457,0.15804351 0.2442197,0.33575241 0.368189,0.89922985 0.2045044,0.9295347 0.4191938,1.563576 0.7505678,2.2166475 0.7003695,1.3802882 1.7591906,2.2369408 3.2405911,2.621841 0.1277649,0.033196 0.2348072,0.057462 0.2378715,0.053924 C 8.591185,6.0962607 8.5726688,5.982801 8.546974,5.8476658 8.4847821,5.520587 8.4590833,4.750074 8.4993602,4.4200902 8.636428,3.2971143 9.1297103,2.2801639 9.9177641,1.4959093 10.851417,0.56675762 12.074832,0.06142506 13.390663,0.06142506 c 1.220414,0 2.370366,0.43887693 3.2353,1.23474654 0.306432,0.2819644 0.245503,0.2816086 0.651916,0.00381 1.171186,-0.80055969 1.766027,-1.18811452 1.864696,-1.21489891 0.165379,-0.04489321 0.507893,-0.01804907 0.650491,0.05098149 0.157199,0.0760983 0.405777,0.32489407 0.489092,0.48952006 0.05206,0.10286118 0.07086,0.18146558 0.08055,0.33676622 0.01562,0.25035064 -0.04599,0.43986464 -0.199816,0.61468194 -0.0558,0.063419 -0.543723,0.5350148 -1.084264,1.0479914 -0.54054,0.5129767 -1.012986,0.9614396 -1.049879,0.9965843 l -0.06708,0.063899 -0.02549,0.7493857 c -0.08214,2.4151772 -0.304333,4.1478951 -0.760883,5.9336602 -0.591418,2.313293 -1.532244,4.160334 -2.883191,5.660317 -0.546721,0.607034 -1.216868,1.177005 -1.947945,1.656757 -1.775794,1.165323 -3.9354391,1.856238 -6.6562003,2.129455 -0.8070909,0.08105 -1.3251924,0.101196 -2.8869779,0.112271 -1.1738831,0.0083 -1.5123215,0.0038 -1.6093366,-0.02165 z"
     id="path247" />
</svg>
